<svg width="199" height="48" viewBox="0 0 199 48" fill="none" xmlns="http://www.w3.org/2000/svg">
<path opacity="0.8" d="M36.4941 11.1631C36.0618 10.7309 35.6296 10.2986 35.1974 9.86642C33.9007 8.48331 32.5176 7.10021 30.7887 6.23577C28.8005 5.19844 26.6394 5.45777 24.4783 5.45777C21.1935 5.45777 12.9813 5.45777 8.14041 5.45777L11.4253 9.86642C17.3899 9.86642 26.7259 9.86642 31.0481 9.86642C32.8634 9.86642 34.4194 10.2122 35.8889 11.1631C36.1483 11.2495 36.4076 11.2495 36.4941 11.1631Z" fill="white"/>
<path opacity="0.9" d="M40.1247 18.2517C39.6925 17.8195 39.2602 17.3873 38.828 16.955C37.5314 15.5719 36.1483 14.1888 34.4194 13.3244C32.4312 12.2871 30.2701 12.5464 28.109 12.5464C25.2563 12.5464 18.4272 12.5464 13.5864 12.5464L16.8712 16.955C22.7494 16.955 30.7887 16.955 34.7652 16.955C36.5805 16.955 38.1365 17.3008 39.606 18.2517C39.7789 18.3381 39.9518 18.3381 40.1247 18.2517Z" fill="white"/>
<path d="M44.1875 25.167C43.7553 24.7348 43.3231 24.3025 42.8909 23.8703C41.5942 22.4872 40.2111 21.1041 38.4822 20.2397C36.494 19.2023 34.3329 19.4617 32.1718 19.4617C29.492 19.4617 23.6139 19.4617 18.8594 19.4617L22.1443 23.8703C27.8496 23.8703 35.1109 23.8703 38.7416 23.8703C40.5569 23.8703 42.1129 24.2161 43.5824 25.167C43.8417 25.2534 44.0146 25.3399 44.1875 25.167Z" fill="white"/>
<path opacity="0.8" d="M7.79465 36.8368C8.22687 37.269 8.65909 37.7012 9.09131 38.1335C10.388 39.5166 11.7711 40.8997 13.4999 41.7641C15.4882 42.8014 17.6493 42.5421 19.8104 42.5421H36.1483L32.8634 38.1335C26.8988 38.1335 17.5628 38.1335 13.2406 38.1335C11.4253 38.1335 9.8693 37.7877 8.39975 36.8368C8.14042 36.7504 7.96754 36.7504 7.79465 36.8368Z" fill="white"/>
<path opacity="0.9" d="M4.16394 29.7487C4.59616 30.1809 5.02838 30.6131 5.4606 31.0453C6.75726 32.4284 8.14036 33.8116 9.86924 34.676C11.8575 35.7133 14.0186 35.454 16.1797 35.454H30.7023L27.4174 31.0453C21.5392 31.0453 13.4999 31.0453 9.52347 31.0453C7.70814 31.0453 6.15215 30.6996 4.6826 29.7487C4.50971 29.6622 4.33683 29.6622 4.16394 29.7487Z" fill="white"/>
<path d="M0.1875 22.7465C0.61972 23.1787 1.05194 23.6109 1.48416 24.0431C2.78082 25.4262 4.16393 26.8094 5.89281 27.6738C7.88102 28.7111 10.0421 28.4518 12.2032 28.4518H25.5156L22.2307 24.0431C16.5254 24.0431 9.26412 24.0431 5.63348 24.0431C3.81815 24.0431 2.26215 23.6974 0.792606 22.7465C0.533273 22.66 0.360388 22.66 0.1875 22.7465Z" fill="white"/>
<path d="M54.1195 14.0081V34.0001H58.5155V25.7401H66.8875V22.3241H58.5155V17.7041H68.1755V14.0081H54.1195Z" fill="white"/>
<path d="M79.2012 25.2081H72.7332C72.7518 24.9281 72.8078 24.6107 72.9012 24.2561C73.0132 23.9014 73.1905 23.5654 73.4332 23.2481C73.6945 22.9307 74.0305 22.6694 74.4412 22.4641C74.8705 22.2401 75.4025 22.1281 76.0372 22.1281C77.0078 22.1281 77.7265 22.3894 78.1932 22.9121C78.6785 23.4347 79.0145 24.2001 79.2012 25.2081ZM72.7332 27.7281H83.1772C83.2518 26.6081 83.1585 25.5347 82.8972 24.5081C82.6358 23.4814 82.2065 22.5667 81.6092 21.7641C81.0305 20.9614 80.2838 20.3267 79.3692 19.8601C78.4545 19.3747 77.3812 19.1321 76.1492 19.1321C75.0478 19.1321 74.0398 19.3281 73.1252 19.7201C72.2292 20.1121 71.4545 20.6534 70.8012 21.3441C70.1478 22.0161 69.6438 22.8187 69.2892 23.7521C68.9345 24.6854 68.7572 25.6934 68.7572 26.7761C68.7572 27.8961 68.9252 28.9227 69.2612 29.8561C69.6158 30.7894 70.1105 31.5921 70.7452 32.2641C71.3798 32.9361 72.1545 33.4587 73.0692 33.8321C73.9838 34.1867 75.0105 34.3641 76.1492 34.3641C77.7918 34.3641 79.1918 33.9907 80.3492 33.2441C81.5065 32.4974 82.3652 31.2561 82.9252 29.5201H79.4252C79.2945 29.9681 78.9398 30.3974 78.3612 30.8081C77.7825 31.2001 77.0918 31.3961 76.2892 31.3961C75.1692 31.3961 74.3105 31.1067 73.7132 30.5281C73.1158 29.9494 72.7892 29.0161 72.7332 27.7281Z" fill="white"/>
<path d="M84.5273 23.9761C84.5833 23.0427 84.8166 22.2681 85.2273 21.6521C85.638 21.0361 86.1606 20.5414 86.7953 20.1681C87.43 19.7947 88.1393 19.5334 88.9233 19.3841C89.726 19.2161 90.5286 19.1321 91.3313 19.1321C92.0593 19.1321 92.7966 19.1881 93.5433 19.3001C94.29 19.3934 94.9713 19.5894 95.5873 19.8881C96.2033 20.1867 96.7073 20.6067 97.0993 21.1481C97.4913 21.6707 97.6873 22.3707 97.6873 23.2481V30.7801C97.6873 31.4334 97.7246 32.0587 97.7993 32.6561C97.874 33.2534 98.0046 33.7014 98.1913 34.0001H94.1593C94.0846 33.7761 94.0193 33.5521 93.9633 33.3281C93.926 33.0854 93.898 32.8427 93.8793 32.6001C93.2446 33.2534 92.498 33.7107 91.6393 33.9721C90.7806 34.2334 89.9033 34.3641 89.0073 34.3641C88.3166 34.3641 87.6726 34.2801 87.0753 34.1121C86.478 33.9441 85.9553 33.6827 85.5073 33.3281C85.0593 32.9734 84.7046 32.5254 84.4433 31.9841C84.2006 31.4427 84.0793 30.7987 84.0793 30.0521C84.0793 29.2307 84.2193 28.5587 84.4993 28.0361C84.798 27.4947 85.1713 27.0654 85.6193 26.7481C86.086 26.4307 86.6086 26.1974 87.1873 26.0481C87.7846 25.8801 88.382 25.7494 88.9793 25.6561C89.5766 25.5627 90.1646 25.4881 90.7433 25.4321C91.322 25.3761 91.8353 25.2921 92.2833 25.1801C92.7313 25.0681 93.086 24.9094 93.3473 24.7041C93.6086 24.4801 93.73 24.1627 93.7113 23.7521C93.7113 23.3227 93.6366 22.9867 93.4873 22.7441C93.3566 22.4827 93.17 22.2867 92.9273 22.1561C92.7033 22.0067 92.4326 21.9134 92.1153 21.8761C91.8166 21.8201 91.49 21.7921 91.1353 21.7921C90.3513 21.7921 89.7353 21.9601 89.2873 22.2961C88.8393 22.6321 88.578 23.1921 88.5033 23.9761H84.5273ZM93.7113 26.9161C93.5433 27.0654 93.3286 27.1867 93.0673 27.2801C92.8246 27.3547 92.554 27.4201 92.2553 27.4761C91.9753 27.5321 91.6766 27.5787 91.3593 27.6161C91.042 27.6534 90.7246 27.7001 90.4073 27.7561C90.1086 27.8121 89.81 27.8867 89.5113 27.9801C89.2313 28.0734 88.9793 28.2041 88.7553 28.3721C88.55 28.5214 88.382 28.7174 88.2513 28.9601C88.1206 29.2027 88.0553 29.5107 88.0553 29.8841C88.0553 30.2387 88.1206 30.5374 88.2513 30.7801C88.382 31.0227 88.5593 31.2187 88.7833 31.3681C89.0073 31.4987 89.2686 31.5921 89.5673 31.6481C89.866 31.7041 90.174 31.7321 90.4913 31.7321C91.2753 31.7321 91.882 31.6014 92.3113 31.3401C92.7406 31.0787 93.058 30.7707 93.2633 30.4161C93.4686 30.0427 93.59 29.6694 93.6273 29.2961C93.6833 28.9227 93.7113 28.6241 93.7113 28.4001V26.9161Z" fill="white"/>
<path d="M104.973 19.5241V15.1841H100.997V19.5241H98.5894V22.1841H100.997V30.7241C100.997 31.4521 101.119 32.0401 101.361 32.4881C101.604 32.9361 101.931 33.2814 102.341 33.5241C102.771 33.7667 103.256 33.9254 103.797 34.0001C104.357 34.0934 104.945 34.1401 105.561 34.1401C105.953 34.1401 106.355 34.1307 106.765 34.1121C107.176 34.0934 107.549 34.0561 107.885 34.0001V30.9201C107.699 30.9574 107.503 30.9854 107.297 31.0041C107.092 31.0227 106.877 31.0321 106.653 31.0321C105.981 31.0321 105.533 30.9201 105.309 30.6961C105.085 30.4721 104.973 30.0241 104.973 29.3521V22.1841H107.885V19.5241H104.973Z" fill="white"/>
<path d="M108.937 14.0081V34.0001H112.913V26.4121C112.913 24.9374 113.156 23.8827 113.641 23.2481C114.126 22.5947 114.91 22.2681 115.993 22.2681C116.945 22.2681 117.608 22.5667 117.981 23.1641C118.354 23.7427 118.541 24.6294 118.541 25.8241V34.0001H122.517V25.0961C122.517 24.2001 122.433 23.3881 122.265 22.6601C122.116 21.9134 121.845 21.2881 121.453 20.7841C121.061 20.2614 120.52 19.8601 119.829 19.5801C119.157 19.2814 118.289 19.1321 117.225 19.1321C116.479 19.1321 115.713 19.3281 114.929 19.7201C114.145 20.0934 113.501 20.7001 112.997 21.5401H112.913V14.0081H108.937Z" fill="white"/>
<path d="M134.439 25.2081H127.971C127.989 24.9281 128.045 24.6107 128.139 24.2561C128.251 23.9014 128.428 23.5654 128.671 23.2481C128.932 22.9307 129.268 22.6694 129.679 22.4641C130.108 22.2401 130.64 22.1281 131.275 22.1281C132.245 22.1281 132.964 22.3894 133.431 22.9121C133.916 23.4347 134.252 24.2001 134.439 25.2081ZM127.971 27.7281H138.415C138.489 26.6081 138.396 25.5347 138.135 24.5081C137.873 23.4814 137.444 22.5667 136.847 21.7641C136.268 20.9614 135.521 20.3267 134.607 19.8601C133.692 19.3747 132.619 19.1321 131.387 19.1321C130.285 19.1321 129.277 19.3281 128.363 19.7201C127.467 20.1121 126.692 20.6534 126.039 21.3441C125.385 22.0161 124.881 22.8187 124.527 23.7521C124.172 24.6854 123.995 25.6934 123.995 26.7761C123.995 27.8961 124.163 28.9227 124.499 29.8561C124.853 30.7894 125.348 31.5921 125.983 32.2641C126.617 32.9361 127.392 33.4587 128.307 33.8321C129.221 34.1867 130.248 34.3641 131.387 34.3641C133.029 34.3641 134.429 33.9907 135.587 33.2441C136.744 32.4974 137.603 31.2561 138.163 29.5201H134.663C134.532 29.9681 134.177 30.3974 133.599 30.8081C133.02 31.2001 132.329 31.3961 131.527 31.3961C130.407 31.3961 129.548 31.1067 128.951 30.5281C128.353 29.9494 128.027 29.0161 127.971 27.7281Z" fill="white"/>
<path d="M139.933 19.5241V34.0001H143.909V27.4761C143.909 26.8227 143.974 26.2161 144.105 25.6561C144.236 25.0961 144.45 24.6107 144.749 24.2001C145.066 23.7707 145.477 23.4347 145.981 23.1921C146.485 22.9494 147.101 22.8281 147.829 22.8281C148.072 22.8281 148.324 22.8467 148.585 22.8841C148.846 22.9027 149.07 22.9307 149.257 22.9681V19.2721C148.94 19.1787 148.65 19.1321 148.389 19.1321C147.885 19.1321 147.4 19.2067 146.933 19.3561C146.466 19.5054 146.028 19.7201 145.617 20.0001C145.206 20.2614 144.842 20.5881 144.525 20.9801C144.208 21.3534 143.956 21.7641 143.769 22.2121H143.713V19.5241H139.933Z" fill="white"/>
<path d="M154.792 30.3041V17.7041H157.928C159.01 17.7041 159.916 17.8627 160.644 18.1801C161.39 18.4787 161.988 18.9174 162.436 19.4961C162.884 20.0747 163.201 20.7747 163.388 21.5961C163.593 22.3987 163.696 23.3041 163.696 24.3121C163.696 25.4134 163.556 26.3467 163.276 27.1121C162.996 27.8774 162.622 28.5027 162.156 28.9881C161.689 29.4547 161.157 29.7907 160.56 29.9961C159.962 30.2014 159.346 30.3041 158.712 30.3041H154.792ZM150.396 14.0081V34.0001H159.02C160.55 34.0001 161.876 33.7481 162.996 33.2441C164.134 32.7214 165.077 32.0121 165.824 31.1161C166.589 30.2201 167.158 29.1561 167.532 27.9241C167.905 26.6921 168.092 25.3481 168.092 23.8921C168.092 22.2307 167.858 20.7841 167.392 19.5521C166.944 18.3201 166.309 17.2934 165.488 16.4721C164.685 15.6507 163.724 15.0347 162.604 14.6241C161.502 14.2134 160.308 14.0081 159.02 14.0081H150.396Z" fill="white"/>
<path d="M179.634 25.2081H173.166C173.184 24.9281 173.24 24.6107 173.334 24.2561C173.446 23.9014 173.623 23.5654 173.866 23.2481C174.127 22.9307 174.463 22.6694 174.874 22.4641C175.303 22.2401 175.835 22.1281 176.47 22.1281C177.44 22.1281 178.159 22.3894 178.626 22.9121C179.111 23.4347 179.447 24.2001 179.634 25.2081ZM173.166 27.7281H183.61C183.684 26.6081 183.591 25.5347 183.33 24.5081C183.068 23.4814 182.639 22.5667 182.042 21.7641C181.463 20.9614 180.716 20.3267 179.802 19.8601C178.887 19.3747 177.814 19.1321 176.582 19.1321C175.48 19.1321 174.472 19.3281 173.558 19.7201C172.662 20.1121 171.887 20.6534 171.234 21.3441C170.58 22.0161 170.076 22.8187 169.722 23.7521C169.367 24.6854 169.19 25.6934 169.19 26.7761C169.19 27.8961 169.358 28.9227 169.694 29.8561C170.048 30.7894 170.543 31.5921 171.178 32.2641C171.812 32.9361 172.587 33.4587 173.502 33.8321C174.416 34.1867 175.443 34.3641 176.582 34.3641C178.224 34.3641 179.624 33.9907 180.782 33.2441C181.939 32.4974 182.798 31.2561 183.358 29.5201H179.858C179.727 29.9681 179.372 30.3974 178.794 30.8081C178.215 31.2001 177.524 31.3961 176.722 31.3961C175.602 31.3961 174.743 31.1067 174.146 30.5281C173.548 29.9494 173.222 29.0161 173.166 27.7281Z" fill="white"/>
<path d="M193.136 34.0001L198.036 19.5241H194.088L191.036 29.4081H190.98L187.928 19.5241H183.756L188.712 34.0001H193.136Z" fill="white"/>
</svg>
