<svg width="198" height="48" viewBox="0 0 198 48" fill="none" xmlns="http://www.w3.org/2000/svg">
<path d="M31.2414 2H14.3836L0.8125 15.5711V32.4289L14.3836 46H31.2414L44.8125 32.4289V15.5711L31.2414 2ZM16.7161 32.641L8.02216 23.947L16.7161 15.253C20.0029 11.9663 25.4101 11.9663 28.6969 15.253L37.3908 23.947L28.6969 32.641C25.4101 35.9277 20.1089 35.9277 16.7161 32.641Z" fill="white"/>
<path d="M64.1525 34.2401C66.8525 34.2401 69.0725 32.8601 69.7625 30.7901V34.0001H73.7525V25.9001C73.7525 24.0701 72.3125 22.5101 70.3625 22.5101H64.6625V25.9001H68.7125C69.2225 25.9001 69.5525 26.2301 69.5525 26.7401C69.5525 28.6901 66.9725 30.5801 64.3625 30.5801C60.8825 30.5801 58.1225 27.8501 58.1225 23.5001C58.1225 19.1501 60.8825 16.6301 64.4525 16.6301C67.1525 16.6301 69.0125 18.1001 69.3425 20.3501H73.8125C73.5425 15.8501 69.7625 12.7601 64.4825 12.7601C58.9325 12.7601 53.8325 16.3301 53.8325 23.5001C53.8325 30.6701 58.7825 34.2401 64.1525 34.2401Z" fill="white"/>
<path d="M75.4653 34.0001H79.6353V12.3101H75.4653V34.0001Z" fill="white"/>
<path d="M88.6304 34.2401C93.2804 34.2401 96.6104 30.9401 96.6104 26.4401C96.6104 21.9401 93.2804 18.6401 88.6304 18.6401C83.9804 18.6401 80.6504 21.9401 80.6504 26.4401C80.6504 30.9401 83.9804 34.2401 88.6304 34.2401ZM88.6304 30.6401C86.3804 30.6401 84.8504 28.9301 84.8504 26.4401C84.8504 23.9201 86.3804 22.2101 88.6304 22.2101C90.8804 22.2101 92.4104 23.9201 92.4104 26.4401C92.4104 28.9301 90.8804 30.6401 88.6304 30.6401Z" fill="white"/>
<path d="M105.941 34.2401C110.411 34.2401 113.081 31.1501 113.081 26.4401C113.081 21.7301 110.411 18.6401 106.001 18.6401C104.111 18.6401 102.641 19.3601 101.801 20.4701V12.3101H97.6313V34.0001H101.801V32.3501C102.641 33.5201 104.201 34.2401 105.941 34.2401ZM105.281 30.6401C103.031 30.6401 101.561 28.9601 101.561 26.4401C101.561 23.8901 103.031 22.2101 105.281 22.2101C107.471 22.2101 108.971 23.8901 108.971 26.4401C108.971 28.9601 107.471 30.6401 105.281 30.6401Z" fill="white"/>
<path d="M120.062 18.6401C115.922 18.6401 113.462 21.0701 113.282 24.1001H117.002C117.062 22.8401 117.992 21.7001 119.822 21.7001C121.532 21.7001 122.522 22.5701 122.522 23.8301C122.522 24.4601 122.132 24.9401 121.382 24.9401H118.832C115.532 24.9401 113.312 26.7401 113.312 29.7101C113.312 32.2901 115.322 34.2401 118.262 34.2401C120.332 34.2401 122.012 33.3101 122.522 31.9001V34.0001H126.662V24.2801C126.662 20.8601 123.872 18.6401 120.062 18.6401ZM119.312 31.2101C118.142 31.2101 117.302 30.5201 117.302 29.5301C117.302 28.3601 118.202 27.5801 119.462 27.5801H122.522V27.7901C122.522 29.7101 121.352 31.2101 119.312 31.2101Z" fill="white"/>
<path d="M128.264 34.0001H132.434V12.3101H128.264V34.0001Z" fill="white"/>
<path d="M134.649 34.0001H143.229C147.669 34.0001 150.729 31.7201 150.729 27.7301C150.729 24.9701 149.109 23.2901 147.189 22.5401C148.419 21.8801 149.649 20.3801 149.649 18.4001C149.649 14.8901 146.799 13.0001 142.989 13.0001H134.649V34.0001ZM139.089 21.0101V16.5701H142.569C144.579 16.5701 145.479 17.3801 145.479 18.7901C145.479 20.2001 144.579 21.0101 142.659 21.0101H139.089ZM139.089 30.1001V24.8201H142.839C145.329 24.8201 146.439 25.7801 146.439 27.4901C146.439 29.2001 145.329 30.1001 142.839 30.1001H139.089Z" fill="white"/>
<path d="M157.984 18.6401C153.844 18.6401 151.384 21.0701 151.204 24.1001H154.924C154.984 22.8401 155.914 21.7001 157.744 21.7001C159.454 21.7001 160.444 22.5701 160.444 23.8301C160.444 24.4601 160.054 24.9401 159.304 24.9401H156.754C153.454 24.9401 151.234 26.7401 151.234 29.7101C151.234 32.2901 153.244 34.2401 156.184 34.2401C158.254 34.2401 159.934 33.3101 160.444 31.9001V34.0001H164.584V24.2801C164.584 20.8601 161.794 18.6401 157.984 18.6401ZM157.234 31.2101C156.064 31.2101 155.224 30.5201 155.224 29.5301C155.224 28.3601 156.124 27.5801 157.384 27.5801H160.444V27.7901C160.444 29.7101 159.274 31.2101 157.234 31.2101Z" fill="white"/>
<path d="M165.946 34.0001H170.146V25.7201C170.146 23.7701 171.436 22.3601 173.266 22.3601C175.006 22.3601 176.176 23.6801 176.176 25.5101V34.0001H180.376V24.5801C180.376 21.1001 178.156 18.6401 174.736 18.6401C172.666 18.6401 170.986 19.5101 170.146 20.9801V18.8801H165.946V34.0001Z" fill="white"/>
<path d="M192.346 34.0001H197.386L190.876 24.8201L196.906 18.8801H191.626L186.376 24.0401V12.3101H182.176V34.0001H186.376V29.2601L188.056 27.6101L192.346 34.0001Z" fill="white"/>
</svg>
