<svg width="1227" height="2019" viewBox="0 0 1227 2019" fill="none" xmlns="http://www.w3.org/2000/svg">
<g opacity="0.71">
<g style="mix-blend-mode:screen">
<path d="M521.131 783.901C521.612 784.08 522.132 783.877 522.311 783.396C522.49 782.915 522.287 782.395 521.806 782.216C521.325 782.037 520.805 782.24 520.626 782.721C520.447 783.202 520.65 783.722 521.131 783.901Z" fill="#B8B3FF"/>
</g>
<path style="mix-blend-mode:color-dodge" opacity="0.44" d="M512.475 804.662C524.421 809.668 538.162 803.996 543.12 792.051C548.126 780.104 542.454 766.364 530.509 761.406C518.562 756.4 504.822 762.071 499.864 774.017C494.905 785.962 500.529 799.704 512.475 804.662Z" fill="url(#paint0_radial_4003_5234)"/>
<g style="mix-blend-mode:screen">
<path d="M612.451 1166.44C612.932 1166.62 613.451 1166.41 613.631 1165.93C613.81 1165.45 613.606 1164.93 613.125 1164.75C612.644 1164.57 612.124 1164.78 611.945 1165.26C611.766 1165.74 611.969 1166.26 612.451 1166.44Z" fill="#B8B3FF"/>
</g>
<path style="mix-blend-mode:screen" opacity="0.69" d="M603.794 1187.2C615.741 1192.21 629.481 1186.53 634.439 1174.59C639.445 1162.64 633.774 1148.9 621.828 1143.94C609.882 1138.94 596.141 1144.61 591.183 1156.55C586.177 1168.5 591.849 1182.24 603.794 1187.2Z" fill="url(#paint1_radial_4003_5234)"/>
<g style="mix-blend-mode:screen">
<path d="M414.388 1629.38C414.87 1629.55 415.389 1629.35 415.569 1628.87C415.748 1628.39 415.544 1627.87 415.063 1627.69C414.582 1627.51 414.062 1627.71 413.883 1628.2C413.704 1628.68 413.907 1629.2 414.388 1629.38Z" fill="#B8B3FF"/>
</g>
<path style="mix-blend-mode:screen" opacity="0.69" d="M405.733 1650.18C417.679 1655.14 431.42 1649.52 436.378 1637.57C441.384 1625.63 435.712 1611.89 423.767 1606.93C411.82 1601.92 398.08 1607.59 393.122 1619.54C388.116 1631.49 393.788 1645.23 405.733 1650.18Z" fill="url(#paint2_radial_4003_5234)"/>
<g style="mix-blend-mode:screen">
<path d="M741.55 740.782C742.074 740.77 742.445 740.332 742.433 739.855C742.421 739.331 741.983 738.96 741.506 738.971C740.982 738.984 740.611 739.422 740.622 739.899C740.635 740.423 741.073 740.794 741.55 740.782Z" fill="#B8B3FF"/>
</g>
<path style="mix-blend-mode:screen" opacity="0.69" d="M718.362 736.414C716.414 749.22 725.216 761.182 738.022 763.13C750.828 765.079 762.79 756.277 764.738 743.47C766.687 730.664 757.885 718.703 745.079 716.754C732.272 714.805 720.311 723.607 718.362 736.414Z" fill="url(#paint3_radial_4003_5234)"/>
<g style="mix-blend-mode:screen">
<path d="M611.1 1484.92C611.625 1484.91 611.996 1484.47 611.984 1483.99C611.971 1483.47 611.533 1483.1 611.057 1483.11C610.533 1483.12 610.162 1483.56 610.173 1484.04C610.186 1484.56 610.624 1484.93 611.1 1484.92Z" fill="#B8B3FF"/>
</g>
<path style="mix-blend-mode:color-dodge" opacity="0.44" d="M612.024 1507.45C624.981 1506.9 635.019 1495.98 634.47 1483.07C633.921 1470.16 622.996 1460.08 610.087 1460.63C597.177 1461.17 587.092 1472.1 587.641 1485.01C588.191 1497.97 599.114 1508 612.024 1507.45Z" fill="url(#paint4_radial_4003_5234)"/>
<g style="mix-blend-mode:screen">
<path d="M876.985 447.686C877.509 447.673 877.93 447.33 877.917 446.805C877.904 446.281 877.561 445.86 877.036 445.873C876.512 445.885 876.091 446.229 876.104 446.753C876.116 447.278 876.46 447.699 876.985 447.686Z" fill="#B8B3FF"/>
</g>
<path style="mix-blend-mode:color-dodge" opacity="0.44" d="M875.904 470.172C888.842 470.767 899.808 460.775 900.451 447.885C901.046 434.947 891.054 423.981 878.163 423.338C865.226 422.743 854.26 432.735 853.616 445.626C853.022 458.563 863.013 469.529 875.904 470.172Z" fill="url(#paint5_radial_4003_5234)"/>
<g style="mix-blend-mode:screen">
<path d="M527.759 980.115C528.24 980.294 528.76 980.091 528.939 979.61C529.118 979.129 528.915 978.609 528.434 978.43C527.953 978.251 527.433 978.454 527.254 978.935C527.075 979.416 527.278 979.936 527.759 980.115Z" fill="#B8B3FF"/>
</g>
<path style="mix-blend-mode:color-dodge" opacity="0.44" d="M519.056 1000.92C531.002 1005.88 544.743 1000.26 549.701 988.314C554.659 976.368 549.036 962.627 537.09 957.668C525.145 952.71 511.403 958.334 506.445 970.28C501.439 982.226 507.111 995.967 519.056 1000.92Z" fill="url(#paint6_radial_4003_5234)"/>
<g opacity="0.65">
<g style="mix-blend-mode:screen">
<path d="M511.108 1346.41C511.108 1346.41 511.489 1346.4 511.532 1346.21C511.623 1346.02 511.523 1345.83 511.331 1345.79C511.138 1345.7 510.95 1345.8 510.907 1345.99C510.816 1346.18 510.916 1346.37 511.108 1346.41Z" fill="#B8B3FF"/>
</g>
<path style="mix-blend-mode:screen" opacity="0.69" d="M507.907 1354.12C512.339 1355.97 517.439 1353.89 519.287 1349.41C521.135 1344.98 519.057 1339.88 514.578 1338.03C510.146 1336.18 505.046 1338.26 503.199 1342.74C501.35 1347.17 503.428 1352.27 507.907 1354.12Z" fill="url(#paint7_radial_4003_5234)"/>
</g>
<g opacity="0.65">
<g style="mix-blend-mode:screen">
<path d="M710.528 1221.4C710.528 1221.4 710.859 1221.25 710.854 1221.06C710.849 1220.87 710.703 1220.73 710.512 1220.73C710.322 1220.74 710.182 1220.88 710.187 1221.07C710.191 1221.26 710.338 1221.4 710.528 1221.4Z" fill="#B8B3FF"/>
</g>
<path style="mix-blend-mode:screen" opacity="0.69" d="M710.92 1229.73C715.731 1229.52 719.449 1225.48 719.238 1220.66C719.026 1215.85 714.979 1212.14 710.168 1212.35C705.357 1212.56 701.639 1216.6 701.85 1221.42C702.061 1226.23 706.109 1229.94 710.92 1229.73Z" fill="url(#paint8_radial_4003_5234)"/>
</g>
<g opacity="0.65">
<g style="mix-blend-mode:screen">
<path d="M438.369 947.311C438.369 947.311 438.75 947.302 438.793 947.11C438.884 946.917 438.784 946.729 438.592 946.685C438.399 946.595 438.211 946.695 438.168 946.886C438.077 947.079 438.177 947.268 438.369 947.311Z" fill="#B8B3FF"/>
</g>
<path style="mix-blend-mode:screen" opacity="0.69" d="M435.122 955.066C439.554 956.915 444.654 954.837 446.501 950.358C448.349 945.879 446.272 940.826 441.793 938.979C437.361 937.13 432.261 939.208 430.413 943.687C428.565 948.119 430.643 953.219 435.122 955.066Z" fill="url(#paint9_radial_4003_5234)"/>
</g>
<g opacity="0.65">
<g style="mix-blend-mode:screen">
<path d="M743.492 656.998C743.492 656.998 743.822 656.847 743.817 656.657C743.813 656.466 743.666 656.326 743.476 656.331C743.285 656.336 743.145 656.482 743.15 656.673C743.155 656.863 743.301 657.003 743.492 656.998Z" fill="#B8B3FF"/>
</g>
<path style="mix-blend-mode:screen" opacity="0.69" d="M743.836 665.383C748.648 665.172 752.365 661.124 752.154 656.313C751.943 651.502 747.896 647.784 743.084 647.995C738.273 648.206 734.555 652.254 734.767 657.065C734.978 661.876 739.025 665.594 743.836 665.383Z" fill="url(#paint10_radial_4003_5234)"/>
</g>
<g style="mix-blend-mode:screen">
<path d="M472.232 1415.3C472.713 1415.48 473.232 1415.28 473.412 1414.8C473.591 1414.32 473.387 1413.8 472.906 1413.62C472.425 1413.44 471.905 1413.64 471.726 1414.12C471.547 1414.6 471.75 1415.12 472.232 1415.3Z" fill="#B8B3FF"/>
</g>
<path style="mix-blend-mode:screen" opacity="0.69" d="M463.575 1436.06C475.522 1441.07 489.262 1435.4 494.22 1423.45C499.226 1411.51 493.555 1397.76 481.609 1392.81C469.662 1387.8 455.922 1393.47 450.964 1405.42C446.006 1417.36 451.63 1431.11 463.575 1436.06Z" fill="url(#paint11_radial_4003_5234)"/>
<g opacity="0.65">
<g style="mix-blend-mode:screen">
<path d="M856.871 1139.81C856.871 1139.81 857.252 1139.81 857.295 1139.61C857.386 1139.42 857.286 1139.23 857.094 1139.19C856.902 1139.15 856.713 1139.2 856.67 1139.39C856.579 1139.58 856.679 1139.77 856.871 1139.81Z" fill="#B8B3FF"/>
</g>
<path style="mix-blend-mode:screen" opacity="0.69" d="M853.67 1147.52C858.102 1149.37 863.202 1147.29 865.05 1142.81C866.898 1138.38 864.82 1133.28 860.341 1131.43C855.909 1129.58 850.809 1131.66 848.962 1136.14C847.113 1140.57 849.191 1145.67 853.67 1147.52Z" fill="url(#paint12_radial_4003_5234)"/>
</g>
<g opacity="0.65">
<g style="mix-blend-mode:screen">
<path d="M860.24 1180.74C860.24 1180.74 860.621 1180.73 860.664 1180.54C860.755 1180.35 860.655 1180.16 860.463 1180.12C860.27 1180.03 860.082 1180.13 860.039 1180.32C859.948 1180.51 860.048 1180.7 860.24 1180.74Z" fill="#B8B3FF"/>
</g>
<path style="mix-blend-mode:screen" opacity="0.69" d="M856.992 1188.45C861.424 1190.3 866.524 1188.22 868.371 1183.74C870.22 1179.31 868.142 1174.21 863.662 1172.36C859.231 1170.52 854.131 1172.59 852.283 1177.07C850.435 1181.5 852.513 1186.6 856.992 1188.45Z" fill="url(#paint13_radial_4003_5234)"/>
</g>
<g opacity="0.65">
<g style="mix-blend-mode:screen">
<path d="M606.499 1444.31C606.499 1444.31 606.83 1444.16 606.825 1443.97C606.82 1443.78 606.674 1443.64 606.483 1443.64C606.293 1443.65 606.153 1443.79 606.158 1443.98C606.162 1444.17 606.309 1444.31 606.499 1444.31Z" fill="#B8B3FF"/>
</g>
<path style="mix-blend-mode:screen" opacity="0.69" d="M606.844 1452.69C611.655 1452.48 615.373 1448.43 615.162 1443.62C614.951 1438.81 610.903 1435.09 606.092 1435.3C601.281 1435.52 597.563 1439.56 597.774 1444.37C597.985 1449.19 602.033 1452.9 606.844 1452.69Z" fill="url(#paint14_radial_4003_5234)"/>
</g>
<g opacity="0.65">
<g style="mix-blend-mode:screen">
<path d="M820.567 512.895C820.567 512.895 820.897 512.744 820.94 512.552C820.936 512.362 820.789 512.222 820.598 512.179C820.406 512.136 820.267 512.33 820.224 512.522C820.229 512.712 820.375 512.852 820.567 512.895Z" fill="#B8B3FF"/>
</g>
<path style="mix-blend-mode:screen" opacity="0.69" d="M820.196 521.249C825.018 521.467 829.077 517.745 829.296 512.971C829.514 508.15 825.792 504.091 821.018 503.872C816.244 503.653 812.137 507.376 811.918 512.15C811.699 516.923 815.422 521.03 820.196 521.249Z" fill="url(#paint15_radial_4003_5234)"/>
</g>
<g opacity="0.65">
<g style="mix-blend-mode:screen">
<path d="M925.13 333.94C925.13 333.94 925.46 333.789 925.503 333.597C925.498 333.407 925.352 333.267 925.16 333.224C924.97 333.229 924.83 333.375 924.787 333.567C924.792 333.757 924.938 333.897 925.13 333.94Z" fill="#B8B3FF"/>
</g>
<path style="mix-blend-mode:screen" opacity="0.69" d="M924.711 342.295C929.532 342.513 933.592 338.791 933.811 334.017C934.029 329.243 930.306 325.136 925.533 324.918C920.711 324.7 916.652 328.422 916.433 333.195C916.215 338.017 919.937 342.076 924.711 342.295Z" fill="url(#paint16_radial_4003_5234)"/>
</g>
<g opacity="0.65">
<g style="mix-blend-mode:screen">
<path d="M774.724 480.523C774.724 480.523 775.054 480.372 775.097 480.18C775.093 479.989 774.946 479.85 774.755 479.807C774.564 479.811 774.424 479.958 774.381 480.15C774.386 480.34 774.532 480.48 774.724 480.523Z" fill="#B8B3FF"/>
</g>
<path style="mix-blend-mode:screen" opacity="0.69" d="M774.353 488.877C779.175 489.095 783.234 485.373 783.453 480.599C783.671 475.777 779.949 471.718 775.175 471.499C770.354 471.281 766.294 475.003 766.075 479.777C765.858 484.599 769.579 488.658 774.353 488.877Z" fill="url(#paint17_radial_4003_5234)"/>
</g>
<g opacity="0.65">
<g style="mix-blend-mode:screen">
<path d="M669.035 1020.92C669.035 1020.92 669.416 1020.91 669.459 1020.72C669.55 1020.53 669.45 1020.34 669.258 1020.3C669.065 1020.2 668.877 1020.3 668.834 1020.5C668.743 1020.69 668.843 1020.88 669.035 1020.92Z" fill="#B8B3FF"/>
</g>
<path style="mix-blend-mode:screen" opacity="0.69" d="M665.788 1028.68C670.22 1030.53 675.32 1028.45 677.167 1023.97C679.016 1019.54 676.938 1014.44 672.459 1012.59C668.027 1010.74 662.927 1012.82 661.079 1017.3C659.231 1021.73 661.309 1026.83 665.788 1028.68Z" fill="url(#paint18_radial_4003_5234)"/>
</g>
<g opacity="0.65">
<g style="mix-blend-mode:screen">
<path d="M508.902 1221.05C508.902 1221.05 509.283 1221.04 509.326 1220.85C509.417 1220.66 509.317 1220.47 509.125 1220.43C508.932 1220.33 508.744 1220.43 508.701 1220.63C508.61 1220.82 508.71 1221.01 508.902 1221.05Z" fill="#B8B3FF"/>
</g>
<path style="mix-blend-mode:screen" opacity="0.69" d="M505.654 1228.76C510.086 1230.61 515.186 1228.53 517.033 1224.05C518.882 1219.62 516.804 1214.52 512.325 1212.67C507.893 1210.82 502.793 1212.9 500.945 1217.38C499.097 1221.81 501.175 1226.91 505.654 1228.76Z" fill="url(#paint19_radial_4003_5234)"/>
</g>
<g style="mix-blend-mode:screen">
<path d="M458.969 1151.44C459.45 1151.62 459.97 1151.41 460.149 1150.93C460.328 1150.45 460.125 1149.93 459.644 1149.75C459.162 1149.57 458.643 1149.78 458.464 1150.26C458.284 1150.74 458.488 1151.26 458.969 1151.44Z" fill="#B8B3FF"/>
</g>
<path style="mix-blend-mode:screen" opacity="0.69" d="M450.313 1172.25C462.26 1177.25 476.001 1171.58 480.959 1159.64C485.917 1147.69 480.293 1133.95 468.347 1128.99C456.401 1123.98 442.66 1129.66 437.702 1141.6C432.744 1153.55 438.368 1167.29 450.313 1172.25Z" fill="url(#paint20_radial_4003_5234)"/>
<g opacity="0.65">
<g style="mix-blend-mode:screen">
<path d="M446.318 1077.54C446.318 1077.54 446.7 1077.53 446.743 1077.34C446.833 1077.15 446.733 1076.96 446.542 1076.92C446.349 1076.83 446.16 1076.93 446.117 1077.12C446.027 1077.31 446.127 1077.5 446.318 1077.54Z" fill="#B8B3FF"/>
</g>
<path style="mix-blend-mode:screen" opacity="0.69" d="M443.071 1085.25C447.502 1087.1 452.602 1085.02 454.45 1080.54C456.298 1076.11 454.22 1071.01 449.741 1069.16C445.309 1067.31 440.209 1069.39 438.362 1073.87C436.513 1078.3 438.591 1083.4 443.071 1085.25Z" fill="url(#paint21_radial_4003_5234)"/>
</g>
<g opacity="0.65">
<g style="mix-blend-mode:screen">
<path d="M654.146 1466.43C654.146 1466.43 654.476 1466.28 654.471 1466.09C654.467 1465.9 654.32 1465.76 654.13 1465.77C653.939 1465.77 653.8 1465.92 653.804 1466.11C653.809 1466.3 653.955 1466.44 654.146 1466.43Z" fill="#B8B3FF"/>
</g>
<path style="mix-blend-mode:screen" opacity="0.69" d="M654.49 1474.82C659.302 1474.61 663.019 1470.56 662.808 1465.75C662.597 1460.94 658.55 1457.22 653.738 1457.43C648.927 1457.64 645.21 1461.69 645.421 1466.5C645.632 1471.31 649.679 1475.03 654.49 1474.82Z" fill="url(#paint22_radial_4003_5234)"/>
</g>
<g opacity="0.65">
<g style="mix-blend-mode:screen">
<path d="M458.189 1186.46C458.189 1186.46 458.571 1186.45 458.614 1186.26C458.705 1186.06 458.605 1185.88 458.413 1185.83C458.22 1185.74 458.032 1185.84 457.988 1186.03C457.898 1186.23 457.998 1186.42 458.189 1186.46Z" fill="#B8B3FF"/>
</g>
<path style="mix-blend-mode:screen" opacity="0.69" d="M454.99 1194.17C459.421 1196.01 464.521 1193.94 466.369 1189.46C468.216 1184.98 466.14 1179.93 461.66 1178.08C457.229 1176.23 452.128 1178.31 450.281 1182.79C448.433 1187.22 450.51 1192.32 454.99 1194.17Z" fill="url(#paint23_radial_4003_5234)"/>
</g>
</g>
<path d="M295.066 1753.8C295.066 1753.8 416.471 1573.25 411.886 1567.01C407.349 1560.78 367.749 1607.51 367.749 1607.51C367.749 1607.51 460.175 1471.15 491.05 1438.36C491.05 1438.36 523.122 1451.37 560.411 1383.9C560.411 1383.9 496.352 1514.05 496.254 1597.17C496.254 1597.17 732.061 1315.63 709.539 1279.36C709.539 1279.36 771.041 1197.53 796.62 1146.8C796.62 1146.8 665.723 1190.48 643.344 1203.8C620.967 1217.16 577.911 1260.97 577.911 1260.97C577.911 1260.97 472.827 1283.48 434.513 1326.18C434.513 1326.18 428.901 1237.62 450.946 1170.8C472.991 1103.99 495.982 991.275 461.161 911.57C461.161 911.57 467.895 866.392 446.557 835.766C446.557 835.766 513.716 820.56 545.715 808.727C577.666 796.895 641.497 746.48 612.751 744.835C612.751 744.835 749.302 561.533 770.793 527.207C792.284 492.88 809.778 454.93 809.778 454.93C809.778 454.93 912.973 387.593 931.933 361.005C950.892 334.417 939.898 323.427 939.898 323.427L1050.2 163.17C1050.2 163.17 981.935 300.671 967.739 327.049C953.543 353.428 935.004 389.543 935.004 389.543C935.004 389.543 926.589 370.814 867.709 424.829C808.828 478.844 788.426 493.068 750.723 596.835C713.02 700.602 645.647 847.619 645.647 847.619C645.647 847.619 652.804 835.859 588.111 864.358C523.419 892.857 506.967 910.706 506.967 910.706C506.967 910.706 464.135 1074.82 494.995 1241.6C494.995 1241.6 670.982 1224.73 869.396 1059.83C869.396 1059.83 840.903 1223.36 695.771 1361.19C695.771 1361.19 752.536 1302.46 749.884 1285.4C747.279 1268.3 572.902 1506.68 563.214 1526.18C553.526 1545.68 659.943 1418.03 659.943 1418.03C659.943 1418.03 518.608 1624.48 423.992 1713.41C423.992 1713.41 505.118 1529.53 514.244 1472.8C514.244 1472.8 453.436 1537.88 295.116 1753.89L295.066 1753.8Z" fill="#6236FF"/>
<g style="mix-blend-mode:screen">
<path d="M950.627 341.242C953.91 334.964 957.241 328.732 960.344 322.935C965.136 313.998 976.337 291.984 988.942 266.883L949.779 323.809C951.305 327.778 952.301 333.524 950.627 341.242Z" fill="#4426FF"/>
</g>
<g style="mix-blend-mode:screen">
<path d="M528.015 1436.71C513.201 1447.27 501.015 1448.18 494.084 1447.49C475.421 1468.59 439.621 1518.66 412.053 1558.09C414.733 1558.46 417.102 1559.83 418.681 1562.03C420.753 1564.89 422.233 1566.96 416.877 1578.2C480.392 1496.79 507.676 1467.38 508.047 1466.94L522.087 1451.92C524.105 1446.62 526.081 1441.52 528.014 1436.66L528.015 1436.71Z" fill="#4426FF"/>
</g>
<g style="mix-blend-mode:screen">
<path d="M486.731 1243C478.454 1198.23 475.471 1153.52 475.52 1111.98C469.689 1139.16 463.015 1161.07 458.972 1173.37C443.549 1220.1 442.047 1278.6 442.363 1307.58C484.54 1274.81 558.828 1256.66 573.672 1253.25C578.421 1248.47 591.928 1235.08 606.492 1222.04C541.477 1245.06 499.285 1249.47 495.766 1249.84L488.106 1250.59L486.731 1243Z" fill="#4426FF"/>
</g>
<g style="mix-blend-mode:screen">
<path d="M752.427 568.564C713.541 623.146 646.244 713.844 625.55 741.666C627.513 744.003 628.098 746.516 628.27 747.704C631.392 768.468 572.631 807.65 548.62 816.525C524.089 825.603 480.192 836.435 459.566 841.319C473.103 868.794 470.781 901.134 469.809 910.265C478.559 931.084 483.539 953.711 485.81 976.784C491.962 935.149 498.677 909.046 498.852 908.374L499.376 906.359L500.816 904.798C501.561 904.017 519.183 885.282 584.773 856.427C616.86 842.303 632.761 837.247 641.377 836.61C655.415 805.658 710.496 682.923 742.877 593.781C746.188 584.736 749.323 576.316 752.426 568.516L752.427 568.564Z" fill="#4426FF"/>
</g>
<g style="mix-blend-mode:screen">
<path d="M813.344 1132.33L804.149 1150.52C781.483 1195.51 732.038 1263.13 719.244 1280.37C720.551 1285.15 720.308 1292.88 714.414 1307.57C741.855 1274.77 746.211 1275.43 750.471 1276.09C753.056 1276.5 755.236 1277.93 756.62 1279.94C817.562 1198.65 844.85 1119.84 855.38 1081.82C819.862 1109.9 785.281 1133.33 752.513 1152.86C774.883 1145.13 792.008 1139.42 793.947 1138.75L813.295 1132.28L813.344 1132.33Z" fill="#4426FF"/>
</g>
<g style="mix-blend-mode:screen">
<path d="M558.089 1535.12C558.089 1535.12 557.847 1534.99 557.701 1534.85C526.503 1574.03 503.049 1602.11 502.678 1602.55L487.798 1620.31L487.813 1597.14C487.815 1591.27 488.144 1585.16 488.709 1578.9C475.336 1613.7 460.55 1649.25 449.404 1675.55C486.821 1635.21 528.065 1583.48 563.561 1536.61C563.182 1536.72 562.802 1536.77 562.468 1536.78C560.752 1536.82 559.494 1536.04 558.089 1535.12Z" fill="#4426FF"/>
</g>
<path d="M493.544 1264.53L478.177 1266L475.38 1250.85C470.942 1226.92 467.811 1201.82 465.992 1175.78C465.238 1178.13 464.527 1180.3 463.908 1182.32C451.375 1220.34 448.24 1266.43 447.754 1297.77C489.795 1271.25 549.084 1255.99 566.393 1251.95C567.51 1250.83 568.908 1249.46 570.445 1247.94C525.508 1261.14 497.303 1264.2 493.544 1264.53Z" fill="#DEDCFF"/>
<path d="M489.519 922.81C492.501 908.003 494.684 899.653 494.728 899.509L495.775 895.43L498.61 892.358C500.514 890.261 519.318 871.068 585.332 842.012C611.758 830.409 628.538 824.235 639.6 822.204C655.084 787.927 695.805 696.629 726.334 617.736C692.958 663.508 656.007 713.323 639.47 735.561C640.082 737.216 640.404 738.686 640.523 739.685C645.01 769.571 573.617 810.964 555.514 817.647C534.15 825.552 499.128 834.597 475.185 840.371C484.418 865.375 483.331 891.581 482.347 902.191C485.032 908.755 487.391 915.612 489.471 922.811L489.519 922.81Z" fill="#DEDCFF"/>
<path d="M818.746 1146.79C799.358 1185.26 761.314 1239.2 741.556 1266.29C749.272 1259.95 753.695 1259.46 758.864 1260.24C759.869 1260.41 760.828 1260.63 761.789 1260.94C807.537 1198.18 833.168 1137.71 846.78 1097C838.208 1103.4 829.536 1109.67 820.814 1115.79L837.135 1110.34L818.746 1146.79Z" fill="#DEDCFF"/>
<path d="M718.875 1413.71C718.875 1413.71 808.551 1317.66 838.739 1262.23C838.739 1262.23 789.278 1281.64 827.181 1180.25L810.959 1207.63C810.959 1207.63 805.285 1269.09 828.434 1266.01C828.434 1266.01 808.514 1312.12 718.923 1413.71L718.875 1413.71Z" fill="#6236FF"/>
<path d="M595.917 1472.22C595.917 1472.22 517.684 1564.28 502.747 1543.99L497.043 1556.62C497.043 1556.62 515.573 1543.92 530.045 1540.9C530.045 1540.9 556.567 1513.51 563.724 1513.67L585.846 1487.72L595.916 1472.17L595.917 1472.22Z" fill="#6236FF"/>
<path d="M682.189 1187.13C682.189 1187.13 751.545 1176.06 762.437 1178.85C773.281 1181.64 760.077 1207.62 760.077 1207.62L772.729 1192.39C772.729 1192.39 764.373 1182 767.963 1174.67C767.963 1174.67 704.252 1184.5 698.983 1177.57L683.504 1184.28L682.189 1187.13Z" fill="#6236FF"/>
<path d="M551.852 881.491C551.852 881.491 537.007 936.354 496.607 961.742L489.033 983.86C489.033 983.86 545.621 909.872 550.233 905.374C550.233 905.374 545.748 883.45 569.665 872.622C593.581 861.794 557.47 873.154 557.47 873.154L551.852 881.491Z" fill="#6236FF"/>
<path d="M737.238 609.129C737.238 609.129 742.265 619.88 737.099 633.071C731.932 646.261 729.553 694.052 729.553 694.052L664.327 825.234C664.327 825.234 728.798 686.441 728.866 677.379C728.934 668.317 727.619 647.366 727.619 647.366L737.239 609.176L737.238 609.129Z" fill="#6236FF"/>
<path d="M883.072 411.297C883.072 411.297 754.738 563.501 737.097 633.023L758.522 576.094C758.522 576.094 831.657 470.378 842.744 447.603C853.832 424.829 883.072 411.297 883.072 411.297Z" fill="#6236FF"/>
<path d="M483.843 1107.11C483.843 1107.11 484.124 1108.87 484.674 1111.91C487.64 1128.15 498.017 1180.88 509.432 1193.52C522.955 1208.55 645.39 1197.64 645.39 1197.64L620.973 1213.44C620.973 1213.44 597.699 1197.46 515.691 1205.91C515.691 1205.91 516.498 1199.84 497.76 1193.99C497.76 1193.99 499.902 1164.09 484.132 1134.95L483.843 1107.11Z" fill="#6236FF"/>
<path d="M464.558 1470.95C464.558 1470.95 428.669 1505.43 402.613 1516.55L299.952 1665.51L410.283 1516.22C410.283 1516.22 437.069 1493.83 448.482 1492.51C459.894 1491.18 464.557 1470.9 464.557 1470.9L464.558 1470.95Z" fill="#6236FF"/>
<path d="M885.235 402.09C854.537 424.382 775.333 424.524 775.333 424.524L705.697 489.383C705.697 489.383 703.48 506.222 692.375 548.12C692.375 548.12 694.756 542.006 705.94 495.482C705.94 495.482 753.415 431.202 798.398 427.879C843.382 424.555 850.832 426.999 850.832 426.999L875.917 415.189L885.235 402.09Z" fill="#6236FF"/>
<path d="M705.696 489.336L690.101 493.24L705.822 492.576L705.696 489.336Z" fill="#6236FF"/>
<g opacity="0.5">
<path style="mix-blend-mode:screen" opacity="0.58" d="M427.755 1357.78C214.795 1589.28 99.3977 1829.6 170.007 1894.56C240.617 1959.51 470.495 1824.5 683.455 1593.01C896.415 1361.51 1011.81 1121.19 941.203 1056.23C870.593 991.278 640.715 1126.29 427.755 1357.78Z" fill="url(#paint24_radial_4003_5234)"/>
<path style="mix-blend-mode:screen" opacity="0.58" d="M630.856 1048.35C449.212 1135.25 332.377 1269.28 369.899 1347.71C407.42 1426.13 585.088 1419.25 766.733 1332.35C948.377 1245.44 1065.21 1111.42 1027.69 1032.99C990.169 954.568 812.501 961.444 630.856 1048.35Z" fill="url(#paint25_radial_4003_5234)"/>
<path style="mix-blend-mode:screen" opacity="0.58" d="M335.604 1035.05C311.86 1235.01 362.598 1405.42 448.929 1415.67C535.261 1425.92 624.495 1272.14 648.238 1072.18C671.982 872.219 621.244 701.81 534.913 691.559C448.581 681.307 359.348 835.096 335.604 1035.05Z" fill="url(#paint26_radial_4003_5234)"/>
<path style="mix-blend-mode:screen" opacity="0.58" d="M483.631 695.089C349.988 845.71 294.367 1014.59 359.398 1072.29C424.428 1129.99 585.484 1054.66 719.127 904.038C852.769 753.416 908.39 584.538 843.36 526.839C778.329 469.139 617.273 544.467 483.631 695.089Z" fill="url(#paint27_radial_4003_5234)"/>
<path style="mix-blend-mode:screen" opacity="0.58" d="M629.046 459.755C472.145 710.054 405.426 950.869 480.025 997.632C554.623 1044.39 742.291 879.396 899.192 629.098C1056.09 378.799 1122.81 137.984 1048.21 91.2214C973.614 44.4588 785.947 209.457 629.046 459.755Z" fill="url(#paint28_radial_4003_5234)"/>
</g>
<defs>
<radialGradient id="paint0_radial_4003_5234" cx="0" cy="0" r="1" gradientUnits="userSpaceOnUse" gradientTransform="translate(521.409 782.955) rotate(112.632) scale(23.455 23.4549)">
<stop stop-color="#D400FF"/>
<stop offset="0.12" stop-color="#A500C6"/>
<stop offset="0.24" stop-color="#790092"/>
<stop offset="0.37" stop-color="#540065"/>
<stop offset="0.5" stop-color="#350040"/>
<stop offset="0.62" stop-color="#1E0024"/>
<stop offset="0.75" stop-color="#0D0010"/>
<stop offset="0.88" stop-color="#030004"/>
<stop offset="1"/>
</radialGradient>
<radialGradient id="paint1_radial_4003_5234" cx="0" cy="0" r="1" gradientUnits="userSpaceOnUse" gradientTransform="translate(612.722 1165.53) rotate(112.632) scale(23.4549 23.455)">
<stop stop-color="#5600FF"/>
<stop offset="0.12" stop-color="#4200C6"/>
<stop offset="0.24" stop-color="#310092"/>
<stop offset="0.37" stop-color="#220065"/>
<stop offset="0.5" stop-color="#150040"/>
<stop offset="0.62" stop-color="#0C0024"/>
<stop offset="0.75" stop-color="#050010"/>
<stop offset="0.88" stop-color="#010004"/>
<stop offset="1"/>
</radialGradient>
<radialGradient id="paint2_radial_4003_5234" cx="0" cy="0" r="1" gradientUnits="userSpaceOnUse" gradientTransform="translate(414.652 1628.48) rotate(112.632) scale(23.455 23.455)">
<stop stop-color="#5600FF"/>
<stop offset="0.12" stop-color="#4200C6"/>
<stop offset="0.24" stop-color="#310092"/>
<stop offset="0.37" stop-color="#220065"/>
<stop offset="0.5" stop-color="#150040"/>
<stop offset="0.62" stop-color="#0C0024"/>
<stop offset="0.75" stop-color="#050010"/>
<stop offset="0.88" stop-color="#010004"/>
<stop offset="1"/>
</radialGradient>
<radialGradient id="paint3_radial_4003_5234" cx="0" cy="0" r="1" gradientUnits="userSpaceOnUse" gradientTransform="translate(741.674 740.191) rotate(87.6118) scale(23.4549)">
<stop stop-color="#5600FF"/>
<stop offset="0.12" stop-color="#4200C6"/>
<stop offset="0.24" stop-color="#310092"/>
<stop offset="0.37" stop-color="#220065"/>
<stop offset="0.5" stop-color="#150040"/>
<stop offset="0.62" stop-color="#0C0024"/>
<stop offset="0.75" stop-color="#050010"/>
<stop offset="0.88" stop-color="#010004"/>
<stop offset="1"/>
</radialGradient>
<radialGradient id="paint4_radial_4003_5234" cx="0" cy="0" r="1" gradientUnits="userSpaceOnUse" gradientTransform="translate(611.346 1484.08) rotate(87.6118) scale(23.455 23.4549)">
<stop stop-color="#D400FF"/>
<stop offset="0.12" stop-color="#A500C6"/>
<stop offset="0.24" stop-color="#790092"/>
<stop offset="0.37" stop-color="#540065"/>
<stop offset="0.5" stop-color="#350040"/>
<stop offset="0.62" stop-color="#1E0024"/>
<stop offset="0.75" stop-color="#0D0010"/>
<stop offset="0.88" stop-color="#030004"/>
<stop offset="1"/>
</radialGradient>
<radialGradient id="paint5_radial_4003_5234" cx="0" cy="0" r="1" gradientUnits="userSpaceOnUse" gradientTransform="translate(877.026 446.321) rotate(92.7118) scale(23.455 23.455)">
<stop stop-color="#D400FF"/>
<stop offset="0.12" stop-color="#A500C6"/>
<stop offset="0.24" stop-color="#790092"/>
<stop offset="0.37" stop-color="#540065"/>
<stop offset="0.5" stop-color="#350040"/>
<stop offset="0.62" stop-color="#1E0024"/>
<stop offset="0.75" stop-color="#0D0010"/>
<stop offset="0.88" stop-color="#030004"/>
<stop offset="1"/>
</radialGradient>
<radialGradient id="paint6_radial_4003_5234" cx="0" cy="0" r="1" gradientUnits="userSpaceOnUse" gradientTransform="translate(528.002 979.236) rotate(112.632) scale(23.4549)">
<stop stop-color="#D400FF"/>
<stop offset="0.12" stop-color="#A500C6"/>
<stop offset="0.24" stop-color="#790092"/>
<stop offset="0.37" stop-color="#540065"/>
<stop offset="0.5" stop-color="#350040"/>
<stop offset="0.62" stop-color="#1E0024"/>
<stop offset="0.75" stop-color="#0D0010"/>
<stop offset="0.88" stop-color="#030004"/>
<stop offset="1"/>
</radialGradient>
<radialGradient id="paint7_radial_4003_5234" cx="0" cy="0" r="1" gradientUnits="userSpaceOnUse" gradientTransform="translate(511.186 1346.02) rotate(112.632) scale(8.72411)">
<stop stop-color="#5600FF"/>
<stop offset="0.12" stop-color="#4200C6"/>
<stop offset="0.24" stop-color="#310092"/>
<stop offset="0.37" stop-color="#220065"/>
<stop offset="0.5" stop-color="#150040"/>
<stop offset="0.62" stop-color="#0C0024"/>
<stop offset="0.75" stop-color="#050010"/>
<stop offset="0.88" stop-color="#010004"/>
<stop offset="1"/>
</radialGradient>
<radialGradient id="paint8_radial_4003_5234" cx="0" cy="0" r="1" gradientUnits="userSpaceOnUse" gradientTransform="translate(710.837 1221.13) rotate(87.6118) scale(8.72412 8.7241)">
<stop stop-color="#5600FF"/>
<stop offset="0.12" stop-color="#4200C6"/>
<stop offset="0.24" stop-color="#310092"/>
<stop offset="0.37" stop-color="#220065"/>
<stop offset="0.5" stop-color="#150040"/>
<stop offset="0.62" stop-color="#0C0024"/>
<stop offset="0.75" stop-color="#050010"/>
<stop offset="0.88" stop-color="#010004"/>
<stop offset="1"/>
</radialGradient>
<radialGradient id="paint9_radial_4003_5234" cx="0" cy="0" r="1" gradientUnits="userSpaceOnUse" gradientTransform="translate(438.421 946.95) rotate(112.632) scale(8.72409 8.72409)">
<stop stop-color="#5600FF"/>
<stop offset="0.12" stop-color="#4200C6"/>
<stop offset="0.24" stop-color="#310092"/>
<stop offset="0.37" stop-color="#220065"/>
<stop offset="0.5" stop-color="#150040"/>
<stop offset="0.62" stop-color="#0C0024"/>
<stop offset="0.75" stop-color="#050010"/>
<stop offset="0.88" stop-color="#010004"/>
<stop offset="1"/>
</radialGradient>
<radialGradient id="paint10_radial_4003_5234" cx="0" cy="0" r="1" gradientUnits="userSpaceOnUse" gradientTransform="translate(743.744 656.733) rotate(87.6118) scale(8.72416 8.7241)">
<stop stop-color="#5600FF"/>
<stop offset="0.12" stop-color="#4200C6"/>
<stop offset="0.24" stop-color="#310092"/>
<stop offset="0.37" stop-color="#220065"/>
<stop offset="0.5" stop-color="#150040"/>
<stop offset="0.62" stop-color="#0C0024"/>
<stop offset="0.75" stop-color="#050010"/>
<stop offset="0.88" stop-color="#010004"/>
<stop offset="1"/>
</radialGradient>
<radialGradient id="paint11_radial_4003_5234" cx="0" cy="0" r="1" gradientUnits="userSpaceOnUse" gradientTransform="translate(472.523 1414.34) rotate(112.632) scale(23.455 23.4549)">
<stop stop-color="#5600FF"/>
<stop offset="0.12" stop-color="#4200C6"/>
<stop offset="0.24" stop-color="#310092"/>
<stop offset="0.37" stop-color="#220065"/>
<stop offset="0.5" stop-color="#150040"/>
<stop offset="0.62" stop-color="#0C0024"/>
<stop offset="0.75" stop-color="#050010"/>
<stop offset="0.88" stop-color="#010004"/>
<stop offset="1"/>
</radialGradient>
<radialGradient id="paint12_radial_4003_5234" cx="0" cy="0" r="1" gradientUnits="userSpaceOnUse" gradientTransform="translate(856.917 1139.4) rotate(112.632) scale(8.72409 8.7241)">
<stop stop-color="#5600FF"/>
<stop offset="0.12" stop-color="#4200C6"/>
<stop offset="0.24" stop-color="#310092"/>
<stop offset="0.37" stop-color="#220065"/>
<stop offset="0.5" stop-color="#150040"/>
<stop offset="0.62" stop-color="#0C0024"/>
<stop offset="0.75" stop-color="#050010"/>
<stop offset="0.88" stop-color="#010004"/>
<stop offset="1"/>
</radialGradient>
<radialGradient id="paint13_radial_4003_5234" cx="0" cy="0" r="1" gradientUnits="userSpaceOnUse" gradientTransform="translate(860.246 1180.35) rotate(112.632) scale(8.72412 8.7241)">
<stop stop-color="#5600FF"/>
<stop offset="0.12" stop-color="#4200C6"/>
<stop offset="0.24" stop-color="#310092"/>
<stop offset="0.37" stop-color="#220065"/>
<stop offset="0.5" stop-color="#150040"/>
<stop offset="0.62" stop-color="#0C0024"/>
<stop offset="0.75" stop-color="#050010"/>
<stop offset="0.88" stop-color="#010004"/>
<stop offset="1"/>
</radialGradient>
<radialGradient id="paint14_radial_4003_5234" cx="0" cy="0" r="1" gradientUnits="userSpaceOnUse" gradientTransform="translate(606.814 1444.05) rotate(87.6118) scale(8.7241)">
<stop stop-color="#5600FF"/>
<stop offset="0.12" stop-color="#4200C6"/>
<stop offset="0.24" stop-color="#310092"/>
<stop offset="0.37" stop-color="#220065"/>
<stop offset="0.5" stop-color="#150040"/>
<stop offset="0.62" stop-color="#0C0024"/>
<stop offset="0.75" stop-color="#050010"/>
<stop offset="0.88" stop-color="#010004"/>
<stop offset="1"/>
</radialGradient>
<radialGradient id="paint15_radial_4003_5234" cx="0" cy="0" r="1" gradientUnits="userSpaceOnUse" gradientTransform="translate(820.602 512.087) rotate(92.7118) scale(8.72406 8.7241)">
<stop stop-color="#5600FF"/>
<stop offset="0.12" stop-color="#4200C6"/>
<stop offset="0.24" stop-color="#310092"/>
<stop offset="0.37" stop-color="#220065"/>
<stop offset="0.5" stop-color="#150040"/>
<stop offset="0.62" stop-color="#0C0024"/>
<stop offset="0.75" stop-color="#050010"/>
<stop offset="0.88" stop-color="#010004"/>
<stop offset="1"/>
</radialGradient>
<radialGradient id="paint16_radial_4003_5234" cx="0" cy="0" r="1" gradientUnits="userSpaceOnUse" gradientTransform="translate(925.149 333.15) rotate(92.7118) scale(8.72406 8.7241)">
<stop stop-color="#5600FF"/>
<stop offset="0.12" stop-color="#4200C6"/>
<stop offset="0.24" stop-color="#310092"/>
<stop offset="0.37" stop-color="#220065"/>
<stop offset="0.5" stop-color="#150040"/>
<stop offset="0.62" stop-color="#0C0024"/>
<stop offset="0.75" stop-color="#050010"/>
<stop offset="0.88" stop-color="#010004"/>
<stop offset="1"/>
</radialGradient>
<radialGradient id="paint17_radial_4003_5234" cx="0" cy="0" r="1" gradientUnits="userSpaceOnUse" gradientTransform="translate(774.741 479.752) rotate(92.7118) scale(8.72406 8.7241)">
<stop stop-color="#5600FF"/>
<stop offset="0.12" stop-color="#4200C6"/>
<stop offset="0.24" stop-color="#310092"/>
<stop offset="0.37" stop-color="#220065"/>
<stop offset="0.5" stop-color="#150040"/>
<stop offset="0.62" stop-color="#0C0024"/>
<stop offset="0.75" stop-color="#050010"/>
<stop offset="0.88" stop-color="#010004"/>
<stop offset="1"/>
</radialGradient>
<radialGradient id="paint18_radial_4003_5234" cx="0" cy="0" r="1" gradientUnits="userSpaceOnUse" gradientTransform="translate(669.087 1020.55) rotate(112.632) scale(8.72412 8.72411)">
<stop stop-color="#5600FF"/>
<stop offset="0.12" stop-color="#4200C6"/>
<stop offset="0.24" stop-color="#310092"/>
<stop offset="0.37" stop-color="#220065"/>
<stop offset="0.5" stop-color="#150040"/>
<stop offset="0.62" stop-color="#0C0024"/>
<stop offset="0.75" stop-color="#050010"/>
<stop offset="0.88" stop-color="#010004"/>
<stop offset="1"/>
</radialGradient>
<radialGradient id="paint19_radial_4003_5234" cx="0" cy="0" r="1" gradientUnits="userSpaceOnUse" gradientTransform="translate(508.956 1220.66) rotate(112.632) scale(8.72409 8.72409)">
<stop stop-color="#5600FF"/>
<stop offset="0.12" stop-color="#4200C6"/>
<stop offset="0.24" stop-color="#310092"/>
<stop offset="0.37" stop-color="#220065"/>
<stop offset="0.5" stop-color="#150040"/>
<stop offset="0.62" stop-color="#0C0024"/>
<stop offset="0.75" stop-color="#050010"/>
<stop offset="0.88" stop-color="#010004"/>
<stop offset="1"/>
</radialGradient>
<radialGradient id="paint20_radial_4003_5234" cx="0" cy="0" r="1" gradientUnits="userSpaceOnUse" gradientTransform="translate(459.259 1150.56) rotate(112.632) scale(23.4549)">
<stop stop-color="#5600FF"/>
<stop offset="0.12" stop-color="#4200C6"/>
<stop offset="0.24" stop-color="#310092"/>
<stop offset="0.37" stop-color="#220065"/>
<stop offset="0.5" stop-color="#150040"/>
<stop offset="0.62" stop-color="#0C0024"/>
<stop offset="0.75" stop-color="#050010"/>
<stop offset="0.88" stop-color="#010004"/>
<stop offset="1"/>
</radialGradient>
<radialGradient id="paint21_radial_4003_5234" cx="0" cy="0" r="1" gradientUnits="userSpaceOnUse" gradientTransform="translate(446.389 1077.12) rotate(112.632) scale(8.72409)">
<stop stop-color="#5600FF"/>
<stop offset="0.12" stop-color="#4200C6"/>
<stop offset="0.24" stop-color="#310092"/>
<stop offset="0.37" stop-color="#220065"/>
<stop offset="0.5" stop-color="#150040"/>
<stop offset="0.62" stop-color="#0C0024"/>
<stop offset="0.75" stop-color="#050010"/>
<stop offset="0.88" stop-color="#010004"/>
<stop offset="1"/>
</radialGradient>
<radialGradient id="paint22_radial_4003_5234" cx="0" cy="0" r="1" gradientUnits="userSpaceOnUse" gradientTransform="translate(654.45 1466.21) rotate(87.6118) scale(8.7241)">
<stop stop-color="#5600FF"/>
<stop offset="0.12" stop-color="#4200C6"/>
<stop offset="0.24" stop-color="#310092"/>
<stop offset="0.37" stop-color="#220065"/>
<stop offset="0.5" stop-color="#150040"/>
<stop offset="0.62" stop-color="#0C0024"/>
<stop offset="0.75" stop-color="#050010"/>
<stop offset="0.88" stop-color="#010004"/>
<stop offset="1"/>
</radialGradient>
<radialGradient id="paint23_radial_4003_5234" cx="0" cy="0" r="1" gradientUnits="userSpaceOnUse" gradientTransform="translate(458.258 1186.04) rotate(112.632) scale(8.72411 8.72409)">
<stop stop-color="#5600FF"/>
<stop offset="0.12" stop-color="#4200C6"/>
<stop offset="0.24" stop-color="#310092"/>
<stop offset="0.37" stop-color="#220065"/>
<stop offset="0.5" stop-color="#150040"/>
<stop offset="0.62" stop-color="#0C0024"/>
<stop offset="0.75" stop-color="#050010"/>
<stop offset="0.88" stop-color="#010004"/>
<stop offset="1"/>
</radialGradient>
<radialGradient id="paint24_radial_4003_5234" cx="0" cy="0" r="1" gradientUnits="userSpaceOnUse" gradientTransform="translate(554.52 1471.69) rotate(-137.388) scale(174.6 570.018)">
<stop stop-color="#5A00FF"/>
<stop offset="0.05" stop-color="#5400EE"/>
<stop offset="0.3" stop-color="#36009A"/>
<stop offset="0.53" stop-color="#1F0058"/>
<stop offset="0.72" stop-color="#0E0028"/>
<stop offset="0.86" stop-color="#03000B"/>
<stop offset="0.94"/>
</radialGradient>
<radialGradient id="paint25_radial_4003_5234" cx="0" cy="0" r="1" gradientUnits="userSpaceOnUse" gradientTransform="translate(689.366 1172.21) rotate(64.4318) scale(156.627 364.606)">
<stop stop-color="#5A00FF"/>
<stop offset="0.08" stop-color="#4E00DE"/>
<stop offset="0.26" stop-color="#36009B"/>
<stop offset="0.44" stop-color="#230064"/>
<stop offset="0.59" stop-color="#140038"/>
<stop offset="0.74" stop-color="#090019"/>
<stop offset="0.86" stop-color="#020006"/>
<stop offset="0.94"/>
</radialGradient>
<radialGradient id="paint26_radial_4003_5234" cx="0" cy="0" r="1" gradientUnits="userSpaceOnUse" gradientTransform="translate(460.665 1049.81) rotate(6.77177) scale(156.627 364.606)">
<stop stop-color="#5A00FF"/>
<stop offset="0.65" stop-color="#1C004F"/>
<stop offset="0.94"/>
</radialGradient>
<radialGradient id="paint27_radial_4003_5234" cx="0" cy="0" r="1" gradientUnits="userSpaceOnUse" gradientTransform="translate(581.816 782.369) rotate(41.5818) scale(156.598 364.539)">
<stop stop-color="#5A00FF"/>
<stop offset="0.08" stop-color="#4E00DE"/>
<stop offset="0.26" stop-color="#36009B"/>
<stop offset="0.44" stop-color="#230064"/>
<stop offset="0.59" stop-color="#140038"/>
<stop offset="0.74" stop-color="#090019"/>
<stop offset="0.86" stop-color="#020006"/>
<stop offset="0.94"/>
</radialGradient>
<radialGradient id="paint28_radial_4003_5234" cx="0" cy="0" r="1" gradientUnits="userSpaceOnUse" gradientTransform="translate(754.02 545.323) rotate(32.0818) scale(159.194 534.071)">
<stop stop-color="#5A00FF"/>
<stop offset="0.08" stop-color="#4E00DE"/>
<stop offset="0.26" stop-color="#36009B"/>
<stop offset="0.44" stop-color="#230064"/>
<stop offset="0.59" stop-color="#140038"/>
<stop offset="0.74" stop-color="#090019"/>
<stop offset="0.86" stop-color="#020006"/>
<stop offset="0.94"/>
</radialGradient>
</defs>
</svg>
