<svg width="26" height="25" viewBox="0 0 26 25" fill="none" xmlns="http://www.w3.org/2000/svg">
<path d="M12.9008 23.7984L25.0976 14.9376L20.4384 0.599976H5.36323L0.705627 14.9376L12.9008 23.7984Z" fill="#31414C"/>
<path d="M20.8752 0H4.928L0 15.1664L12.9008 24.5392L25.8016 15.1664L20.8752 0ZM2.552 14.3376L6.504 2.1712H19.2976L23.2512 14.3376L12.9024 21.8576L2.552 14.3376Z" fill="url(#paint0_radial_0_25211)"/>
<g style="mix-blend-mode:multiply" opacity="0.2">
<path d="M6.50403 2.1712L12.9008 21.8576L19.2976 2.1712H6.50403Z" fill="#0C363D"/>
</g>
<g style="mix-blend-mode:multiply" opacity="0.6">
<path d="M12.9008 14.5296L6.18719 11.2288V12.1024L12.9008 16.9808L19.616 12.1024V11.2288L12.9008 14.5296Z" fill="#2753A0"/>
</g>
<path d="M20.8752 0H4.92802L3.78882 3.5088C4.49762 3.5408 5.23202 3.6304 5.98402 3.7744L6.50562 2.1712H19.2992L23.2528 14.3376L21.752 15.4288C22.0896 16.0848 22.3888 16.7632 22.6448 17.4624L25.8032 15.168L20.8752 0Z" fill="url(#paint1_radial_0_25211)"/>
<path style="mix-blend-mode:screen" d="M20.8752 0H4.92802L3.78882 3.5088C4.49762 3.5408 5.23202 3.6304 5.98402 3.7744L6.50562 2.1712H19.2992L23.2528 14.3376L21.752 15.4288C22.0896 16.0848 22.3888 16.7632 22.6448 17.4624L25.8032 15.168L20.8752 0Z" fill="url(#paint2_linear_0_25211)"/>
<path style="mix-blend-mode:screen" d="M20 19.3824C19.9248 18.5376 19.7984 17.7328 19.6288 16.9696L12.9008 21.8576L2.552 14.3376L5.3904 5.60162C4.584 5.62082 3.7904 5.71202 3.0208 5.86882L0 15.1664L12.9008 24.5392L20 19.3808V19.3824Z" fill="url(#paint3_linear_0_25211)"/>
<path d="M2.552 14.3376L3.5744 14.1088L7.136 3.144H18.6656L22.2288 14.1088L23.2512 14.3376L19.2976 2.1712H6.504L2.552 14.3376Z" fill="#455A82"/>
<g style="mix-blend-mode:multiply" opacity="0.2">
<path d="M3.57441 14.1088L5.56801 8.99358C6.74881 5.96478 9.66562 4.65118 12.9168 4.65118C16.1808 4.65118 19.1088 5.98238 20.2784 9.03038L22.2288 14.1088L18.6656 3.14398H7.13601L3.57281 14.1088H3.57441Z" fill="#2753A0"/>
</g>
<path d="M2.552 14.3376L3.5744 14.1088L12.9008 20.8848L22.2288 14.1088L23.2512 14.3376L12.9008 21.8576L2.552 14.3376Z" fill="url(#paint4_linear_0_25211)"/>
<path d="M6.18719 10.064V11.2288L12.9008 16.1072L19.616 11.2288V10.064L12.9008 14.9408L6.18719 10.064Z" fill="#455A82"/>
<g style="mix-blend-mode:multiply" opacity="0.6">
<path d="M3.57441 14.1088L7.23202 4.72318C7.40802 4.27038 7.84482 3.97118 8.33122 3.97118H17.5232C18.0112 3.97118 18.4496 4.27198 18.624 4.72798L22.2272 14.1088L18.664 3.14398H7.13601L3.57281 14.1088H3.57441Z" fill="#2753A0"/>
</g>
<path d="M6.50403 2.1712L7.13603 3.144H18.6656L19.2976 2.1712H6.50403Z" fill="#2E3E54"/>
<path d="M12.9008 14.9408V16.1072L6.18719 11.2288V10.064L12.9008 14.9408Z" fill="#2E3E54"/>
<path d="M12.9008 12.4896L6.8288 8.0896L6.18719 10.064L12.9008 14.9408L19.616 10.064L18.9744 8.0896L12.9008 12.4896Z" fill="url(#paint5_radial_0_25211)"/>
<path style="mix-blend-mode:screen" d="M12.9008 14.9408L17.392 11.6784C17.0144 11.1216 16.6032 10.6032 16.1664 10.1232L12.9024 12.4896L6.83038 8.08801L6.18878 10.0624L12.9024 14.9408H12.9008Z" fill="url(#paint6_linear_0_25211)"/>
<path style="mix-blend-mode:screen" d="M17.0784 9.4624C17.5744 9.9088 18.0512 10.3776 18.5088 10.8672L19.6144 10.064L18.9728 8.0896L17.0784 9.4624Z" fill="url(#paint7_linear_0_25211)"/>
<g style="mix-blend-mode:multiply" opacity="0.35">
<path d="M6.82878 8.0896L6.58398 9.4304C6.53598 9.696 6.63678 9.968 6.84958 10.136L12.9024 14.9424L6.18878 10.064L6.83038 8.0896H6.82878Z" fill="#455A82"/>
</g>
<g style="mix-blend-mode:multiply" opacity="0.35">
<path d="M1.768 9.72803L0.5328 14.3552C0.4368 14.7536 0.6256 15.2832 0.9552 15.5296L12.9024 24.5408L0 15.1664L1.768 9.72803Z" fill="#455A82"/>
</g>
<g style="mix-blend-mode:multiply" opacity="0.6">
<path d="M3.5744 14.1088L12.472 20.1024C12.7072 20.2608 13.0944 20.2608 13.3296 20.1024L22.2272 14.1088L12.9008 20.8848L3.5744 14.1088Z" fill="#2753A0"/>
</g>
<g style="mix-blend-mode:multiply" opacity="0.35">
<path d="M12.9008 24.5392L24.3888 15.6656C25.192 15.0704 25.3664 14.9408 25.0048 13.8L22.608 5.33282L25.8032 15.1664L12.9024 24.5392H12.9008Z" fill="#455A82"/>
</g>
<g style="mix-blend-mode:multiply" opacity="0.35">
<path d="M2.05762 8.83359L4.75202 1.10879C5.03042 0.324787 5.23362 0.118387 6.06562 0.0879869L12.9024 0.00158691H4.92802L2.05762 8.83359Z" fill="#455A82"/>
</g>
<path d="M7.20001 17.7152L12.9008 21.8576L20.6 16.264L12.9008 22.2096L7.20001 17.7152Z" fill="#F3FEFF"/>
<path d="M8.38239 9.2144L12.9008 12.4896L18.088 8.7312L12.9008 12.8912L8.38239 9.2144Z" fill="#F3FEFF"/>
<path d="M12.4688 0H20.8752L22.608 5.3328L20.5536 0.296L12.4688 0Z" fill="#F3FEFF"/>
<g style="mix-blend-mode:screen">
<path d="M15.8144 0C15.744 0.6912 16.0464 1.464 16.6288 2.1712H19.2992L19.96 4.2032C20.7968 4.408 21.5968 4.4144 22.2528 4.2352L20.8752 0H15.8144Z" fill="white"/>
</g>
<g style="mix-blend-mode:screen">
<path d="M15.1728 1.20643C14.616 0.801627 13.944 0.776027 13.672 1.14883C13.4784 1.41603 13.5424 1.81603 13.8 2.16963H15.7984C15.768 1.84323 15.5424 1.47523 15.1712 1.20643H15.1728Z" fill="white"/>
</g>
<g style="mix-blend-mode:screen">
<path d="M6.50719 17.2112C6.30559 17.7312 6.67039 18.5056 7.40479 19.0384C8.13919 19.5712 8.98879 19.68 9.41919 19.328L6.50559 17.2112H6.50719Z" fill="white"/>
</g>
<g style="mix-blend-mode:screen">
<path d="M9.43842 20.7456C9.31522 20.9344 8.97442 20.9312 8.67842 20.7376C8.38242 20.544 8.24002 20.2336 8.36322 20.0448C8.48642 19.856 8.82722 19.8592 9.12322 20.0528C9.42082 20.2464 9.56162 20.5568 9.43842 20.7456Z" fill="white"/>
</g>
<g style="mix-blend-mode:multiply" opacity="0.35">
<path d="M16.7296 12.16L18.9216 10.2752C19.1552 10.0752 19.2656 9.76641 19.2128 9.46241L18.9744 8.08801L19.616 10.0624L16.7312 12.1584L16.7296 12.16Z" fill="#455A82"/>
</g>
<defs>
<radialGradient id="paint0_radial_0_25211" cx="0" cy="0" r="1" gradientUnits="userSpaceOnUse" gradientTransform="translate(19.7952 0.820799) scale(20.4656 20.4656)">
<stop offset="0.01" stop-color="#5C6CBA"/>
<stop offset="1" stop-color="#81B3D4"/>
</radialGradient>
<radialGradient id="paint1_radial_0_25211" cx="0" cy="0" r="1" gradientUnits="userSpaceOnUse" gradientTransform="translate(23.5184 -1.9664) scale(28.3136 28.3136)">
<stop offset="0.01" stop-color="#5C6CBA"/>
<stop offset="1" stop-color="#81B3D4"/>
</radialGradient>
<linearGradient id="paint2_linear_0_25211" x1="24.7392" y1="-3.9808" x2="11.9072" y2="11.8496" gradientUnits="userSpaceOnUse">
<stop stop-color="#9CD3DE"/>
<stop offset="0.19" stop-color="#98CDDA"/>
<stop offset="0.41" stop-color="#8CBED0"/>
<stop offset="0.66" stop-color="#79A6C0"/>
<stop offset="0.93" stop-color="#5F84AA"/>
<stop offset="1" stop-color="#5779A3"/>
</linearGradient>
<linearGradient id="paint3_linear_0_25211" x1="4.304" y1="21.6592" x2="15.5232" y2="7.59682" gradientUnits="userSpaceOnUse">
<stop stop-color="#42495E"/>
<stop offset="1" stop-color="#4A5780"/>
</linearGradient>
<linearGradient id="paint4_linear_0_25211" x1="12.9008" y1="12.3152" x2="12.9008" y2="16.5904" gradientUnits="userSpaceOnUse">
<stop stop-color="#B4E6F7"/>
<stop offset="0.23" stop-color="#CCEEF9"/>
<stop offset="0.51" stop-color="#E3F7FC"/>
<stop offset="0.77" stop-color="#F2FCFE"/>
<stop offset="1" stop-color="#F7FEFF"/>
</linearGradient>
<radialGradient id="paint5_radial_0_25211" cx="0" cy="0" r="1" gradientUnits="userSpaceOnUse" gradientTransform="translate(17.72 6.5456) scale(11.8528 11.8528)">
<stop offset="0.01" stop-color="#5C6CBA"/>
<stop offset="1" stop-color="#81B3D4"/>
</radialGradient>
<linearGradient id="paint6_linear_0_25211" x1="3.37278" y1="20.8352" x2="14.5488" y2="6.82721" gradientUnits="userSpaceOnUse">
<stop stop-color="#42495E"/>
<stop offset="1" stop-color="#4A5780"/>
</linearGradient>
<linearGradient id="paint7_linear_0_25211" x1="25.9104" y1="0.4336" x2="15.312" y2="13.5072" gradientUnits="userSpaceOnUse">
<stop stop-color="#9CD3DE"/>
<stop offset="0.19" stop-color="#98CDDA"/>
<stop offset="0.41" stop-color="#8CBED0"/>
<stop offset="0.66" stop-color="#79A6C0"/>
<stop offset="0.93" stop-color="#5F84AA"/>
<stop offset="1" stop-color="#5779A3"/>
</linearGradient>
</defs>
</svg>
