<svg xmlns="http://www.w3.org/2000/svg" xmlns:xlink="http://www.w3.org/1999/xlink" width="1512" height="1194" fill="none" xmlns:v="https://vecta.io/nano"><style><![CDATA[.B{fill:#b8b3ff}.C{opacity:.69}.D{opacity:.65}.E{opacity:.58}.F{opacity:.44}.G{fill:#4426ff}.H{color-interpolation-filters:sRGB}]]></style><g clip-path="url(#b)"><g opacity=".71"><g style="mix-blend-mode:screen" class="B"><path d="M1002.69 970.7c-.31-.442-.13-.993.46-1.261s1.29-.165 1.6.276.13.993-.46 1.261-1.29.165-1.6-.276z"/></g><path style="mix-blend-mode:color-dodge" d="M977.366 983.167c-8.321-10.855-3.199-25.496 11.375-32.647 14.569-7.198 33.129-4.189 41.389 6.673 8.32 10.855 3.2 25.496-11.38 32.647-14.57 7.151-33.124 4.189-41.384-6.673z" fill="url(#D)" class="F"/><g style="mix-blend-mode:screen" class="B"><path d="M496.499 952.69c-.306-.442-.127-.993.463-1.261s1.291-.165 1.597.276.127.993-.463 1.261-1.291.165-1.597-.276z"/></g><path style="mix-blend-mode:screen" d="M471.176 965.157c-8.321-10.855-3.199-25.496 11.375-32.647 14.568-7.198 33.127-4.189 41.387 6.673 8.321 10.855 3.199 25.496-11.376 32.647-14.568 7.198-33.127 4.189-41.386-6.673z" fill="url(#E)" class="C"/><g style="mix-blend-mode:screen" class="B"><path d="M1023.33 744.864c-.07-.52.44-.969 1.05-1.048.68-.086 1.22.277 1.28.75.07.52-.43.969-1.05 1.047-.68.087-1.22-.276-1.28-.749z"/></g><path style="mix-blend-mode:screen" d="M1032.6 766.941c-16.15 4.341-32.918-2.095-37.445-14.376s4.905-25.755 21.055-30.096c16.16-4.341 32.92 2.095 37.45 14.376s-4.9 25.755-21.06 30.096z" fill="url(#F)" class="C"/><g style="mix-blend-mode:screen" class="B"><path d="M87.282 1014.12c-.066-.52.438-.97 1.053-1.05.676-.08 1.222.28 1.283.75.066.52-.438.97-1.053 1.05-.676.09-1.222-.28-1.282-.75z"/></g><path style="mix-blend-mode:color-dodge" d="M58.169 1017.46c-1.338-12.9 11.12-24.877 27.803-26.771s31.372 6.993 32.704 19.851c1.332 12.85-11.12 24.87-27.803 26.77-16.744 1.9-31.372-7-32.704-19.85z" fill="url(#G)" class="F"/><g style="mix-blend-mode:screen" class="B"><path d="M1378.74 555.794c-.06-.52.31-1.001.99-1.087.67-.087 1.27.174 1.34.694.06.52-.31 1.001-.99 1.087-.67.086-1.27-.174-1.34-.694z"/></g><path style="mix-blend-mode:color-dodge" d="M1350.01 561.104c-2.81-12.665 8.3-25.381 24.77-28.45 16.54-3.028 32.22 4.771 35.08 17.382 2.81 12.665-8.31 25.381-24.78 28.449-16.54 3.029-32.21-4.77-35.07-17.381z" fill="url(#H)" class="F"/><g style="mix-blend-mode:screen" class="B"><path d="M749.398 1001.18c-.306-.44-.127-.99.463-1.262s1.291-.165 1.597.272c.306.45.127 1-.463 1.26-.591.27-1.291.17-1.597-.27z"/></g><path style="mix-blend-mode:color-dodge" d="M724.019 1013.7c-8.259-10.86-3.198-25.495 11.376-32.646s33.127-4.19 41.387 6.673 3.198 25.493-11.376 32.643c-14.568 7.2-33.127 4.19-41.387-6.67z" fill="url(#I)" class="F"/><g class="D"><g style="mix-blend-mode:screen" class="B"><path d="M410.363 866.192s.142-.354.388-.386.447.087.472.276-.142.355-.388.386-.447-.087-.472-.276z"/></g><path style="mix-blend-mode:screen" d="M399.585 867.379c-.488-4.792 4.129-9.227 10.347-9.927s11.637 2.597 12.125 7.389-4.128 9.227-10.347 9.926-11.636-2.597-12.125-7.388z" fill="url(#J)" class="C"/></g><g class="D"><g style="mix-blend-mode:screen" class="B"><path d="M1130.73 727.137s.14-.355.39-.386c.24-.032.45.087.47.276s-.14.354-.39.386c-.24.031-.44-.087-.47-.276z"/></g><path style="mix-blend-mode:screen" d="M1119.9 728.378c-.49-4.792 4.13-9.227 10.34-9.926 6.22-.7 11.64 2.596 12.13 7.388s-4.13 9.227-10.35 9.927-11.63-2.597-12.12-7.389z" fill="url(#K)" class="C"/></g><g class="D"><g style="mix-blend-mode:screen" class="B"><path d="M492.144 706.262s-.049-.379.191-.457c.233-.126.491-.063.577.118s.048.378-.192.457c-.233.126-.491.063-.576-.118z"/></g><path style="mix-blend-mode:screen" d="M482.742 710.876c-3.076-4.028-1.21-9.457 4.257-12.127 5.405-2.662 12.29-1.572 15.372 2.503 3.076 4.028 1.209 9.458-4.257 12.128-5.406 2.661-12.29 1.572-15.372-2.504z" fill="url(#L)" class="C"/></g><g class="D"><g style="mix-blend-mode:screen" class="B"><path d="M438.995 710.657s-.049-.379.191-.457c.233-.126.491-.063.576.118.147.174.049.378-.191.457-.233.126-.491.063-.576-.118z"/></g><path style="mix-blend-mode:screen" d="M429.598 715.319c-3.075-4.028-1.209-9.458 4.258-12.127 5.405-2.662 12.289-1.573 15.371 2.503 3.076 4.028 1.21 9.457-4.257 12.127-5.405 2.662-12.29 1.572-15.372-2.503z" fill="url(#M)" class="C"/></g><g class="D"><g style="mix-blend-mode:screen" class="B"><path d="M140.22 1011s.142-.35.387-.39c.246-.03.448.09.472.28s-.141.35-.387.39c-.245.03-.448-.09-.472-.28z"/></g><path style="mix-blend-mode:screen" d="M129.387 1012.24c-.488-4.79 4.128-9.23 10.347-9.92 6.218-.7 11.636 2.59 12.124 7.38.488 4.8-4.128 9.23-10.346 9.93s-11.637-2.6-12.125-7.39z" fill="url(#N)" class="C"/></g><g class="D"><g style="mix-blend-mode:screen" class="B"><path d="M1303.82 623.82s.14-.355.38-.433c.25-.032.45.086.53.268.09.181-.14.354-.38.433-.24.031-.45-.087-.53-.268z"/></g><path style="mix-blend-mode:screen" d="M1293.14 625.763c-1.04-4.721 3.1-9.433 9.2-10.55 6.17-1.125 11.97 1.785 13.01 6.459 1.03 4.674-3.11 9.433-9.21 10.55s-11.97-1.785-13-6.459z" fill="url(#O)" class="C"/></g><g class="D"><path style="mix-blend-mode:screen" d="M1506.7 488.77c-1.05-4.721 3.1-9.433 9.2-10.55s11.97 1.785 13.01 6.459c1.04 4.721-3.11 9.432-9.21 10.549-6.16 1.125-11.97-1.785-13-6.458z" fill="url(#P)" class="C"/></g><g class="D"><g style="mix-blend-mode:screen" class="B"><path d="M1352.67 662.989s.14-.354.38-.433a.51.51 0 0 1 .54.268c.02.189-.14.355-.38.433a.51.51 0 0 1-.54-.268z"/></g><path style="mix-blend-mode:screen" d="M1341.99 664.932c-1.04-4.721 3.1-9.433 9.21-10.55 6.16-1.125 11.97 1.785 13 6.459 1.04 4.721-3.1 9.432-9.2 10.549-6.17 1.125-11.97-1.785-13.01-6.458z" fill="url(#Q)" class="C"/></g><g class="D"><g style="mix-blend-mode:screen" class="B"><path d="M674.639 869.346s-.048-.379.191-.457c.234-.126.491-.063.577.118.147.173.048.378-.191.457-.233.126-.491.063-.577-.118z"/></g><path style="mix-blend-mode:screen" d="M665.181 874.016c-3.076-4.029-1.21-9.458 4.257-12.128 5.405-2.662 12.29-1.572 15.372 2.504 3.076 4.028 1.21 9.457-4.257 12.127-5.405 2.662-12.29 1.572-15.372-2.503z" fill="url(#R)" class="C"/></g><g class="D"><path style="mix-blend-mode:screen" d="M433.24 1069.93c-3.076-4.03-1.21-9.46 4.257-12.13 5.406-2.66 12.29-1.57 15.372 2.5 3.076 4.03 1.21 9.46-4.257 12.13-5.405 2.66-12.29 1.57-15.372-2.5z" fill="url(#S)" class="C"/></g><g class="D"><g style="mix-blend-mode:screen" class="B"><path d="M104.256 968.116s.142-.354.388-.386.448.087.472.276-.142.355-.388.386-.447-.086-.472-.276z"/></g><path style="mix-blend-mode:screen" d="M93.423 969.358c-.488-4.792 4.128-9.227 10.347-9.927s11.636 2.597 12.125 7.389-4.129 9.227-10.347 9.926-11.637-2.596-12.125-7.388z" fill="url(#T)" class="C"/></g></g><path d="M-208.49 1376.99S4.458 1223.01 13.193 1226.37c8.729 3.3-45.096 51.23-45.096 51.23s160.717-117.02 197.995-153.7c0 0-21.788-29.22 59.06-78.78 0 0-157.206 87.83-264.047 103.61 0 0 324.714-286.023 374.9-270.623 0 0 95.491-76.184 156.675-111.021 0 0-35.495 137.525-49.084 162.141-13.651 24.623-63.176 75.413-63.176 75.413s-12.349 108.04-61.188 153.93c0 0 114.738-11.16 197.152-45.54 82.415-34.39 223.683-78.36 331.645-59.01 0 0 57.016-15.17 99.756.12 0 0 8.948-69.198 19.109-103.036 10.167-33.789 64.906-106.346 71.556-78.265l254.83-197.158c40.73-27.704 86.76-52.143 86.76-52.143s70.28-114.628 101.46-138.37c31.19-23.743 47.05-14.958 47.05-14.958l188.61-139.185-197.66 112.371-75.17 44.124s25.41 4.776-34.74 73.123c-60.14 68.347-75.21 91.18-202.66 147.999-127.44 56.818-305.809 151.101-305.809 151.101s13.989-9.287-12.437 59.985-46.775 88.892-46.775 88.892-204.223 73.27-423.501 74.26c0 0-6.091-176.999 174.585-404.082 0 0-205.736 58.999-360.009 228.348 0 0 66.544-67.147 88.888-67.747 22.4-.654-256.531 216.551-280.068 229.801S165.56 953.258 165.56 953.258-77.533 1131.81-176.914 1242.03c0 0 223.578-114.82 295.065-134.54 0 0-74.062 72.34-326.77 269.47l.129.03z" fill="#6236ff"/><g style="mix-blend-mode:screen" class="G"><path d="M1503.96 462.975l22-13.052c10.73-6.419 37.27-21.636 67.54-38.822l-67 49.422c-5.34-.758-12.88-.658-22.54 2.452z"/></g><g style="mix-blend-mode:screen" class="G"><path d="M417.924 1091.3c58.861-.27 116.804-5.76 170.193-13.64-34.019 10.88-61.127 21.61-76.307 27.92-57.63 24.05-132.598 36.58-169.911 41.73 35.475-47.84 47.074-124.63 49.113-139.94 5.405-5.59 20.488-21.459 34.946-38.303-19.335 68.553-18.332 111.063-18.253 114.603l.236 7.71 9.983-.08z"/></g><g style="mix-blend-mode:screen" class="G"><path d="M1243.01 701.624L1040.5 859.6c-3.31-1.498-6.64-1.602-8.19-1.547-27.19.834-68.28 66.263-75.9 91.653-7.798 25.941-14.794 71.344-17.816 92.634-37.459-8.19-78.667.21-90.252 2.89-28.146-4.71-58.02-5.36-88.041-3.25 52.554-13.93 85.051-25.49 85.887-25.79l2.508-.9 1.779-1.71c.887-.89 22.191-21.826 48.932-92.051 13.092-34.357 17.082-51.016 16.54-59.645 37.576-19.706 186.663-97.267 296.153-146.069l30.97-14.199-.06.008z"/></g><g style="mix-blend-mode:screen" class="G"><path d="M508.642 747.838l-21.945 12.516c-54.258 30.875-133.379 92.469-153.518 108.358-6.357-.388-16.258 1.311-34.207 9.903 37.836-33.292 36.302-37.47 34.78-41.552-.941-2.475-3.118-4.359-5.93-5.346 94.888-75.53 191.902-117.353 239.118-134.928-30.496 40.38-55.165 78.956-75.099 115.005l11.6-43.586 5.268-20.331-.067-.039z"/></g><g fill="#dedcff"><path d="M389.167 1088.64l.54 15.45 19.911-.09c31.461-.13 64.227-1.78 97.991-4.9l-8.073 3.3c-46.901 19.55-105.661 31.34-145.876 37.74 27.461-46.53 37.715-107.97 40.177-125.82l4.512-4.76c-9.867 46.87-9.353 75.3-9.182 79.08zm439.937-60.51c18.564-5.74 28.954-9.47 29.132-9.54l5.078-1.8 3.503-3.38c2.394-2.28 24.1-24.471 51.032-95.154 10.746-28.289 16.034-46.027 16.899-57.335 41.622-21.762 152.562-79.208 249.162-124.247l-137.76 108.025c-2.22-.292-4.16-.332-5.46-.262-39.13 1.209-81.077 79.531-86.81 98.672-6.791 22.592-12.89 58.891-16.533 83.631-33.602-4.41-67.12 1.61-80.604 4.59-8.862-1.42-18.051-2.45-27.633-3.15l-.006-.05zM489.197 745.231c-46.398 26.409-109.739 74.162-141.439 98.787 6.929-8.816 6.858-13.277 5.037-18.234-.373-.962-.801-1.868-1.352-2.759 73.459-57.025 147.143-93.75 197.339-114.877-6.881 9.675-13.566 19.422-20.061 29.192l4.427-17.148-43.951 25.039z"/></g><g fill="#6236ff"><path d="M161.82 894.237s109.326-106.695 175.81-146.968c0 0-17.141 52.513 107.216-4.054l-32.639 21.188s-78.117 17.202-77.806-6.244c0 0-56.139 28.377-172.587 136.03l.006.048zm-55.813 132.483S.011 1121.36 28.451 1132.28l-15.338 8.02s13.403-20.7 14.999-35.56c0 0 31.025-31.37 29.688-38.4l29.867-26.75 18.401-12.88-.062.01zm352.889-139.005s3.274-70.588-2.032-80.819c-5.299-10.184-36.605 7.759-36.605 7.759l17.582-15.37s14.671 6.294 23.533 1.363c0 0-2.581 64.78 7.161 68.677l-6.189 16.555-3.45 1.835zm413.486 71.058s-68.187 25.015-94.447 69.707l-27.238 11.65 91.238-75.252s28.892.294 39.037-25.371 1.241 12.145 1.241 12.145l-9.831 7.121zM1193.26 724.28s-14.62-2.936-30.76 4.656-77.2 18.959-77.2 18.959L926.95 837.07s168.25-89.865 179.89-91.642 38.78-4.432 38.78-4.432l47.58-16.708.06-.008z"/><path d="M1424.56 542.915s-175.41 155.471-262 186.013l69.81-31.903s124.36-92.181 151.88-107.429c27.53-15.248 40.31-46.681 40.31-46.681zM593.069 1068.52l-6.298.08c-21.342.14-90.768-.16-108.83-9.05-21.456-10.52-26.758-133.505-26.758-133.505l-16.457 27.097s24.227 19.971 26.298 102.568c0 0 7.683-1.95 18.153 15.46 0 0 38.105-7.76 78.053 2.31l35.839-4.96z"/><path d="M1436.06 539.042c-23.82 34.526-11.49 112.779-11.49 112.779l-72.39 81.016s-21.3 5.367-73.41 24.241c0 0 7.48-3.505 65.53-23.33 0 0 75.14-59.019 72.31-104.075s-7.14-51.953-7.14-51.953l11.22-27.004 15.37-11.674z"/><path d="M1352.24 732.829l-2.56 16.139-1.63-15.652 4.19-.487z"/></g><g opacity=".5"><path style="mix-blend-mode:screen" d="M279.669 1171.21c-263.987 254.02-554.721 413.34-649.371 355.86s42.624-310 306.612-564.017 554.72-413.337 649.371-355.855-42.625 310-306.612 564.012z" fill="url(#U)" class="E"/><path style="mix-blend-mode:screen" d="M645.404 912.228c-83.049 195.802-236.906 336.482-343.648 314.222s-125.949-199.03-42.899-394.832 236.907-336.486 343.649-314.226 125.948 199.034 42.898 394.836z" fill="url(#V)" class="E"/><path style="mix-blend-mode:screen" d="M709.102 1201.33c-253.311 61.18-480.391 43.23-507.197-40.11-26.806-83.33 156.812-200.481 410.123-261.663s480.392-43.225 507.202 40.107c26.8 83.336-156.817 200.486-410.128 261.666z" fill="url(#W)" class="E"/><path style="mix-blend-mode:screen" d="M1122.78 990.979C950.245 1151.39 741.922 1238.2 657.48 1184.86c-84.442-53.35-13.026-226.629 159.512-387.044S1197.85 550.599 1282.3 603.94c84.44 53.34 13.02 226.624-159.52 387.039z" fill="url(#X)" class="E"/><path style="mix-blend-mode:screen" d="M1402.36 802.952c-297 202.198-596.054 313.528-667.946 248.678-71.892-64.855 110.601-281.342 407.606-483.537s596.06-313.533 667.95-248.678-110.6 281.341-407.61 483.537z" fill="url(#Y)" class="E"/></g><path fill="url(#Z)" d="M-258 405h2032v655H-258z"/></g><mask id="A" maskUnits="userSpaceOnUse" x="0" y="372" width="1512" height="822"><path d="M1512 372H0v821.55h1512V372z" fill="#fff"/></mask><g mask="url(#A)"><g filter="url(#B)"><path d="M1200 689.667c-29.05 0-294.527-60.481-472.357-60.481S286.631 719 258 719c0-30.048 291.813-150 469.643-150S1200 659.619 1200 689.667z" fill="#fff" fill-opacity=".5"/></g><g filter="url(#C)"><path d="M1723 1273.9c0 387.94-432.72 702.42-966.5 702.42S-210 1661.84-210 1273.9c0-387.931 432.717-702.413 966.5-702.413S1723 885.969 1723 1273.9z" fill="url(#a)"/></g></g><defs><filter id="B" x="158" y="469" width="1142" height="350" filterUnits="userSpaceOnUse" class="H"><feFlood flood-opacity="0"/><feBlend in="SourceGraphic"/><feGaussianBlur stdDeviation="50"/></filter><filter id="C" x="-410" y="371.487" width="2333" height="1804.83" filterUnits="userSpaceOnUse" class="H"><feFlood flood-opacity="0"/><feBlend in="SourceGraphic"/><feGaussianBlur stdDeviation="100"/></filter><radialGradient id="D" cx="0" cy="0" r="1" gradientTransform="translate(1003.86 970.247) rotate(153.79) scale(29.4325 24.2893)" xlink:href="#c"><stop stop-color="#d400ff"/><stop offset=".12" stop-color="#a500c6"/><stop offset=".24" stop-color="#790092"/><stop offset=".37" stop-color="#540065"/><stop offset=".5" stop-color="#350040"/><stop offset=".62" stop-color="#1e0024"/><stop offset=".75" stop-color="#0d0010"/><stop offset=".88" stop-color="#030004"/><stop offset="1"/></radialGradient><radialGradient id="E" cx="0" cy="0" r="1" gradientTransform="translate(497.625 952.25) rotate(153.79) scale(29.4325 24.2893)" xlink:href="#c"><stop stop-color="#5600ff"/><stop offset=".12" stop-color="#4200c6"/><stop offset=".24" stop-color="#310092"/><stop offset=".37" stop-color="#220065"/><stop offset=".5" stop-color="#150040"/><stop offset=".62" stop-color="#0c0024"/><stop offset=".75" stop-color="#050010"/><stop offset=".88" stop-color="#010004"/><stop offset="1"/></radialGradient><radialGradient id="F" cx="0" cy="0" r="1" gradientTransform="translate(1024.07 744.63) rotate(173.488) scale(30.4775 23.4564)" xlink:href="#c"><stop stop-color="#5600ff"/><stop offset=".12" stop-color="#4200c6"/><stop offset=".24" stop-color="#310092"/><stop offset=".37" stop-color="#220065"/><stop offset=".5" stop-color="#150040"/><stop offset=".62" stop-color="#0c0024"/><stop offset=".75" stop-color="#050010"/><stop offset=".88" stop-color="#010004"/><stop offset="1"/></radialGradient><radialGradient id="G" cx="0" cy="0" r="1" gradientTransform="translate(88.3209 1013.72) rotate(173.488) scale(30.4776 23.4564)" xlink:href="#c"><stop stop-color="#d400ff"/><stop offset=".12" stop-color="#a500c6"/><stop offset=".24" stop-color="#790092"/><stop offset=".37" stop-color="#540065"/><stop offset=".5" stop-color="#350040"/><stop offset=".62" stop-color="#1e0024"/><stop offset=".75" stop-color="#0d0010"/><stop offset=".88" stop-color="#030004"/><stop offset="1"/></radialGradient><radialGradient id="H" cx="0" cy="0" r="1" gradientTransform="translate(1380.49 555.495) rotate(169.561) scale(30.4478 23.4793)" xlink:href="#c"><stop stop-color="#d400ff"/><stop offset=".12" stop-color="#a500c6"/><stop offset=".24" stop-color="#790092"/><stop offset=".37" stop-color="#540065"/><stop offset=".5" stop-color="#350040"/><stop offset=".62" stop-color="#1e0024"/><stop offset=".75" stop-color="#0d0010"/><stop offset=".88" stop-color="#030004"/><stop offset="1"/></radialGradient><radialGradient id="I" cx="0" cy="0" r="1" gradientTransform="translate(750.49 1000.77) rotate(153.79) scale(29.4325 24.2893)" xlink:href="#c"><stop stop-color="#d400ff"/><stop offset=".12" stop-color="#a500c6"/><stop offset=".24" stop-color="#790092"/><stop offset=".37" stop-color="#540065"/><stop offset=".5" stop-color="#350040"/><stop offset=".62" stop-color="#1e0024"/><stop offset=".75" stop-color="#0d0010"/><stop offset=".88" stop-color="#030004"/><stop offset="1"/></radialGradient><radialGradient id="J" cx="0" cy="0" r="1" gradientTransform="translate(410.656 865.837) rotate(173.488) scale(11.3362 8.72466)" xlink:href="#c"><stop stop-color="#5600ff"/><stop offset=".12" stop-color="#4200c6"/><stop offset=".24" stop-color="#310092"/><stop offset=".37" stop-color="#220065"/><stop offset=".5" stop-color="#150040"/><stop offset=".62" stop-color="#0c0024"/><stop offset=".75" stop-color="#050010"/><stop offset=".88" stop-color="#010004"/><stop offset="1"/></radialGradient><radialGradient id="K" cx="0" cy="0" r="1" gradientTransform="translate(1131.03 726.837) rotate(173.488) scale(11.3362 8.72466)" xlink:href="#c"><stop stop-color="#5600ff"/><stop offset=".12" stop-color="#4200c6"/><stop offset=".24" stop-color="#310092"/><stop offset=".37" stop-color="#220065"/><stop offset=".5" stop-color="#150040"/><stop offset=".62" stop-color="#0c0024"/><stop offset=".75" stop-color="#050010"/><stop offset=".88" stop-color="#010004"/><stop offset="1"/></radialGradient><radialGradient id="L" cx="0" cy="0" r="1" gradientTransform="translate(492.669 706.137) rotate(153.79) scale(10.9474 9.03443)" xlink:href="#c"><stop stop-color="#5600ff"/><stop offset=".12" stop-color="#4200c6"/><stop offset=".24" stop-color="#310092"/><stop offset=".37" stop-color="#220065"/><stop offset=".5" stop-color="#150040"/><stop offset=".62" stop-color="#0c0024"/><stop offset=".75" stop-color="#050010"/><stop offset=".88" stop-color="#010004"/><stop offset="1"/></radialGradient><radialGradient id="M" cx="0" cy="0" r="1" gradientTransform="translate(439.498 710.576) rotate(153.79) scale(10.9475 9.03444)" xlink:href="#c"><stop stop-color="#5600ff"/><stop offset=".12" stop-color="#4200c6"/><stop offset=".24" stop-color="#310092"/><stop offset=".37" stop-color="#220065"/><stop offset=".5" stop-color="#150040"/><stop offset=".62" stop-color="#0c0024"/><stop offset=".75" stop-color="#050010"/><stop offset=".88" stop-color="#010004"/><stop offset="1"/></radialGradient><radialGradient id="N" cx="0" cy="0" r="1" gradientTransform="translate(140.503 1010.64) rotate(173.488) scale(11.3362 8.72466)" xlink:href="#c"><stop stop-color="#5600ff"/><stop offset=".12" stop-color="#4200c6"/><stop offset=".24" stop-color="#310092"/><stop offset=".37" stop-color="#220065"/><stop offset=".5" stop-color="#150040"/><stop offset=".62" stop-color="#0c0024"/><stop offset=".75" stop-color="#050010"/><stop offset=".88" stop-color="#010004"/><stop offset="1"/></radialGradient><radialGradient id="O" cx="0" cy="0" r="1" gradientTransform="translate(1304.85 623.633) rotate(169.561) scale(11.3251 8.73316)" xlink:href="#c"><stop stop-color="#5600ff"/><stop offset=".12" stop-color="#4200c6"/><stop offset=".24" stop-color="#310092"/><stop offset=".37" stop-color="#220065"/><stop offset=".5" stop-color="#150040"/><stop offset=".62" stop-color="#0c0024"/><stop offset=".75" stop-color="#050010"/><stop offset=".88" stop-color="#010004"/><stop offset="1"/></radialGradient><radialGradient id="P" cx="0" cy="0" r="1" gradientTransform="translate(1518.38 486.611) rotate(169.561) scale(11.3251 8.73316)" xlink:href="#c"><stop stop-color="#5600ff"/><stop offset=".12" stop-color="#4200c6"/><stop offset=".24" stop-color="#310092"/><stop offset=".37" stop-color="#220065"/><stop offset=".5" stop-color="#150040"/><stop offset=".62" stop-color="#0c0024"/><stop offset=".75" stop-color="#050010"/><stop offset=".88" stop-color="#010004"/><stop offset="1"/></radialGradient><radialGradient id="Q" cx="0" cy="0" r="1" gradientTransform="translate(1353.66 662.827) rotate(169.561) scale(11.3251 8.73316)" xlink:href="#c"><stop stop-color="#5600ff"/><stop offset=".12" stop-color="#4200c6"/><stop offset=".24" stop-color="#310092"/><stop offset=".37" stop-color="#220065"/><stop offset=".5" stop-color="#150040"/><stop offset=".62" stop-color="#0c0024"/><stop offset=".75" stop-color="#050010"/><stop offset=".88" stop-color="#010004"/><stop offset="1"/></radialGradient><radialGradient id="R" cx="0" cy="0" r="1" gradientTransform="translate(675.113 869.223) rotate(153.79) scale(10.9475 9.03444)" xlink:href="#c"><stop stop-color="#5600ff"/><stop offset=".12" stop-color="#4200c6"/><stop offset=".24" stop-color="#310092"/><stop offset=".37" stop-color="#220065"/><stop offset=".5" stop-color="#150040"/><stop offset=".62" stop-color="#0c0024"/><stop offset=".75" stop-color="#050010"/><stop offset=".88" stop-color="#010004"/><stop offset="1"/></radialGradient><radialGradient id="S" cx="0" cy="0" r="1" gradientTransform="translate(443.13 1065.14) rotate(153.79) scale(10.9475 9.03442)" xlink:href="#c"><stop stop-color="#5600ff"/><stop offset=".12" stop-color="#4200c6"/><stop offset=".24" stop-color="#310092"/><stop offset=".37" stop-color="#220065"/><stop offset=".5" stop-color="#150040"/><stop offset=".62" stop-color="#0c0024"/><stop offset=".75" stop-color="#050010"/><stop offset=".88" stop-color="#010004"/><stop offset="1"/></radialGradient><radialGradient id="T" cx="0" cy="0" r="1" gradientTransform="translate(104.499 967.773) rotate(173.488) scale(11.3362 8.72466)" xlink:href="#c"><stop stop-color="#5600ff"/><stop offset=".12" stop-color="#4200c6"/><stop offset=".24" stop-color="#310092"/><stop offset=".37" stop-color="#220065"/><stop offset=".5" stop-color="#150040"/><stop offset=".62" stop-color="#0c0024"/><stop offset=".75" stop-color="#050010"/><stop offset=".88" stop-color="#010004"/><stop offset="1"/></radialGradient><radialGradient id="U" cx="0" cy="0" r="1" gradientTransform="translate(113.219 1067.51) rotate(31.2706) scale(201.525 641.767)" xlink:href="#c"><stop stop-color="#5a00ff"/><stop offset=".05" stop-color="#5400ee"/><stop offset=".3" stop-color="#36009a"/><stop offset=".53" stop-color="#1f0058"/><stop offset=".72" stop-color="#0e0028"/><stop offset=".86" stop-color="#03000b"/><stop offset=".94"/></radialGradient><radialGradient id="V" cx="0" cy="0" r="1" gradientTransform="translate(476.935 877.813) rotate(-168.22) scale(196.443 377.77)" xlink:href="#c"><stop stop-color="#5a00ff"/><stop offset=".08" stop-color="#4e00de"/><stop offset=".26" stop-color="#36009b"/><stop offset=".44" stop-color="#230064"/><stop offset=".59" stop-color="#140038"/><stop offset=".74" stop-color="#090019"/><stop offset=".86" stop-color="#020006"/><stop offset=".94"/></radialGradient><radialGradient id="W" cx="0" cy="0" r="1" gradientTransform="translate(670.388 1080.6) rotate(-107.832) scale(157.707 470.557)" xlink:href="#c"><stop stop-color="#5a00ff"/><stop offset=".65" stop-color="#1c004f"/><stop offset=".94"/></radialGradient><radialGradient id="X" cx="0" cy="0" r="1" gradientTransform="translate(995.08 910.474) rotate(-147.72) scale(179.906 412.341)" xlink:href="#c"><stop stop-color="#5a00ff"/><stop offset=".08" stop-color="#4e00de"/><stop offset=".26" stop-color="#36009b"/><stop offset=".44" stop-color="#230064"/><stop offset=".59" stop-color="#140038"/><stop offset=".74" stop-color="#090019"/><stop offset=".86" stop-color="#020006"/><stop offset=".94"/></radialGradient><radialGradient id="Y" cx="0" cy="0" r="1" gradientTransform="translate(1272.64 695.665) rotate(-137.946) scale(175.067 631.097)" xlink:href="#c"><stop stop-color="#5a00ff"/><stop offset=".08" stop-color="#4e00de"/><stop offset=".26" stop-color="#36009b"/><stop offset=".44" stop-color="#230064"/><stop offset=".59" stop-color="#140038"/><stop offset=".74" stop-color="#090019"/><stop offset=".86" stop-color="#020006"/><stop offset=".94"/></radialGradient><linearGradient id="Z" x1="758" y1="405" x2="758" y2="1060" xlink:href="#c"><stop stop-opacity="0"/><stop offset=".601" stop-opacity=".934"/><stop offset=".749" stop-opacity=".955"/><stop offset=".835" stop-opacity=".974"/><stop offset="1"/></linearGradient><linearGradient id="a" x1="756.5" y1="571.487" x2="756.5" y2="855.946" xlink:href="#c"><stop stop-color="#3300c2"/><stop offset=".286" stop-color="#4011c7"/><stop offset=".938" stop-color="#1f1049" stop-opacity="0"/></linearGradient><clipPath id="b"><path fill="#fff" d="M0 0h1512v1060H0z"/></clipPath><linearGradient id="c" gradientUnits="userSpaceOnUse"/></defs></svg>